ISO-10303-21;
HEADER;
/* Generated by software containing ST-Developer
 * from STEP Tools, Inc. (www.steptools.com) 
 */
/* OPTION: using custom renumber hook */

FILE_DESCRIPTION(
/* description */ ('STEP AP242 Edition 2',
'CAx-IF Rec.Pracs.---Representation and Presentation of Product Manufa
cturing Information (PMI)---4.0---2014-10-13',
'CAx-IF Rec.Pracs.---3D Tessellated Geometry---0.4---2014-09-14','2;1',
'CAx-IF Rec.Pracs.---User Defined Attributes---1.5---2016-08-15'),
/* implementation_level */ '2;1');

FILE_NAME(
/* name */ 'Part Studio 1 - Part 50',
/* time_stamp */ '2026-06-02T13:51:16Z',
/* author */ (''),
/* organization */ (''),
/* preprocessor_version */ 'ST-DEVELOPER v20',
/* originating_system */ 'ONSHAPE BY PTC INC, 1.215',
/* authorisation */ '  ');

FILE_SCHEMA (('AP242_MANAGED_MODEL_BASED_3D_ENGINEERING_MIM_LF { 1 0 10303 442 3 1 4 }'));
ENDSEC;

DATA;
#10=SHAPE_REPRESENTATION_RELATIONSHIP('','',#137,#11);
#11=ADVANCED_BREP_SHAPE_REPRESENTATION('',(#135),#217);
#12=LINE('',#190,#24);
#13=LINE('',#193,#25);
#14=LINE('',#195,#26);
#15=LINE('',#197,#27);
#16=LINE('',#199,#28);
#17=LINE('',#201,#29);
#18=LINE('',#203,#30);
#19=LINE('',#205,#31);
#20=LINE('',#207,#32);
#21=LINE('',#209,#33);
#22=LINE('',#211,#34);
#23=LINE('',#212,#35);
#24=VECTOR('',#159,1.);
#25=VECTOR('',#160,1.);
#26=VECTOR('',#161,1.);
#27=VECTOR('',#162,1.);
#28=VECTOR('',#165,1.);
#29=VECTOR('',#166,1.);
#30=VECTOR('',#167,1.);
#31=VECTOR('',#170,1.);
#32=VECTOR('',#171,1.);
#33=VECTOR('',#172,1.);
#34=VECTOR('',#175,1.);
#35=VECTOR('',#176,1.);
#36=PLANE('',#142);
#37=PLANE('',#143);
#38=PLANE('',#144);
#39=PLANE('',#145);
#40=PLANE('',#146);
#41=PLANE('',#147);
#42=PLANE('',#148);
#43=ORIENTED_EDGE('',*,*,#71,.F.);
#44=ORIENTED_EDGE('',*,*,#72,.F.);
#45=ORIENTED_EDGE('',*,*,#73,.T.);
#46=ORIENTED_EDGE('',*,*,#74,.F.);
#47=ORIENTED_EDGE('',*,*,#75,.F.);
#48=ORIENTED_EDGE('',*,*,#76,.T.);
#49=ORIENTED_EDGE('',*,*,#77,.F.);
#50=ORIENTED_EDGE('',*,*,#76,.F.);
#51=ORIENTED_EDGE('',*,*,#78,.T.);
#52=ORIENTED_EDGE('',*,*,#79,.T.);
#53=ORIENTED_EDGE('',*,*,#80,.F.);
#54=ORIENTED_EDGE('',*,*,#79,.F.);
#55=ORIENTED_EDGE('',*,*,#81,.T.);
#56=ORIENTED_EDGE('',*,*,#82,.T.);
#57=ORIENTED_EDGE('',*,*,#83,.T.);
#58=ORIENTED_EDGE('',*,*,#82,.F.);
#59=ORIENTED_EDGE('',*,*,#84,.F.);
#60=ORIENTED_EDGE('',*,*,#74,.T.);
#61=ORIENTED_EDGE('',*,*,#71,.T.);
#62=ORIENTED_EDGE('',*,*,#75,.T.);
#63=ORIENTED_EDGE('',*,*,#84,.T.);
#64=ORIENTED_EDGE('',*,*,#81,.F.);
#65=ORIENTED_EDGE('',*,*,#78,.F.);
#66=ORIENTED_EDGE('',*,*,#73,.F.);
#67=ORIENTED_EDGE('',*,*,#77,.T.);
#68=ORIENTED_EDGE('',*,*,#80,.T.);
#69=ORIENTED_EDGE('',*,*,#83,.F.);
#70=ORIENTED_EDGE('',*,*,#72,.T.);
#71=EDGE_CURVE('',#85,#85,#95,.T.);
#72=EDGE_CURVE('',#86,#86,#96,.F.);
#73=EDGE_CURVE('',#87,#88,#12,.T.);
#74=EDGE_CURVE('',#89,#88,#13,.T.);
#75=EDGE_CURVE('',#90,#89,#14,.T.);
#76=EDGE_CURVE('',#90,#87,#15,.T.);
#77=EDGE_CURVE('',#87,#91,#16,.T.);
#78=EDGE_CURVE('',#90,#92,#17,.T.);
#79=EDGE_CURVE('',#92,#91,#18,.T.);
#80=EDGE_CURVE('',#91,#93,#19,.T.);
#81=EDGE_CURVE('',#92,#94,#20,.T.);
#82=EDGE_CURVE('',#94,#93,#21,.T.);
#83=EDGE_CURVE('',#88,#93,#22,.T.);
#84=EDGE_CURVE('',#89,#94,#23,.T.);
#85=VERTEX_POINT('',#186);
#86=VERTEX_POINT('',#188);
#87=VERTEX_POINT('',#191);
#88=VERTEX_POINT('',#192);
#89=VERTEX_POINT('',#194);
#90=VERTEX_POINT('',#196);
#91=VERTEX_POINT('',#200);
#92=VERTEX_POINT('',#202);
#93=VERTEX_POINT('',#206);
#94=VERTEX_POINT('',#208);
#95=CIRCLE('',#140,0.00162194009466172);
#96=CIRCLE('',#141,0.00162194009466172);
#97=EDGE_LOOP('',(#43));
#98=EDGE_LOOP('',(#44));
#99=EDGE_LOOP('',(#45,#46,#47,#48));
#100=EDGE_LOOP('',(#49,#50,#51,#52));
#101=EDGE_LOOP('',(#53,#54,#55,#56));
#102=EDGE_LOOP('',(#57,#58,#59,#60));
#103=EDGE_LOOP('',(#61));
#104=EDGE_LOOP('',(#62,#63,#64,#65));
#105=EDGE_LOOP('',(#66,#67,#68,#69));
#106=EDGE_LOOP('',(#70));
#107=FACE_BOUND('',#97,.T.);
#108=FACE_BOUND('',#98,.T.);
#109=FACE_BOUND('',#99,.T.);
#110=FACE_BOUND('',#100,.T.);
#111=FACE_BOUND('',#101,.T.);
#112=FACE_BOUND('',#102,.T.);
#113=FACE_BOUND('',#103,.T.);
#114=FACE_BOUND('',#104,.T.);
#115=FACE_BOUND('',#105,.T.);
#116=FACE_BOUND('',#106,.T.);
#117=CYLINDRICAL_SURFACE('',#139,0.00162194009466172);
#118=ADVANCED_FACE('',(#107,#108),#117,.F.);
#119=ADVANCED_FACE('',(#109),#36,.F.);
#120=ADVANCED_FACE('',(#110),#37,.T.);
#121=ADVANCED_FACE('',(#111),#38,.T.);
#122=ADVANCED_FACE('',(#112),#39,.F.);
#123=ADVANCED_FACE('',(#113,#114),#40,.F.);
#124=ADVANCED_FACE('',(#115),#41,.T.);
#125=ADVANCED_FACE('',(#116),#42,.F.);
#126=CLOSED_SHELL('',(#118,#119,#120,#121,#122,#123,#124,#125));
#127=STYLED_ITEM('',(#128),#135);
#128=PRESENTATION_STYLE_ASSIGNMENT((#129));
#129=SURFACE_STYLE_USAGE(.BOTH.,#130);
#130=SURFACE_SIDE_STYLE('',(#131));
#131=SURFACE_STYLE_FILL_AREA(#132);
#132=FILL_AREA_STYLE('',(#133));
#133=FILL_AREA_STYLE_COLOUR('',#134);
#134=COLOUR_RGB('',0.917647058823529,0.917647058823529,0.917647058823529);
#135=MANIFOLD_SOLID_BREP('Part 50',#126);
#136=SHAPE_DEFINITION_REPRESENTATION(#222,#137);
#137=SHAPE_REPRESENTATION('Part 50',(#138),#217);
#138=AXIS2_PLACEMENT_3D('',#183,#149,#150);
#139=AXIS2_PLACEMENT_3D('',#184,#151,#152);
#140=AXIS2_PLACEMENT_3D('',#185,#153,#154);
#141=AXIS2_PLACEMENT_3D('',#187,#155,#156);
#142=AXIS2_PLACEMENT_3D('',#189,#157,#158);
#143=AXIS2_PLACEMENT_3D('',#198,#163,#164);
#144=AXIS2_PLACEMENT_3D('',#204,#168,#169);
#145=AXIS2_PLACEMENT_3D('',#210,#173,#174);
#146=AXIS2_PLACEMENT_3D('',#213,#177,#178);
#147=AXIS2_PLACEMENT_3D('',#214,#179,#180);
#148=AXIS2_PLACEMENT_3D('',#215,#181,#182);
#149=DIRECTION('',(0.,0.,1.));
#150=DIRECTION('',(1.,0.,0.));
#151=DIRECTION('',(0.,0.,1.));
#152=DIRECTION('',(1.,0.,0.));
#153=DIRECTION('',(0.,0.,1.));
#154=DIRECTION('',(1.,0.,0.));
#155=DIRECTION('',(0.,0.,1.));
#156=DIRECTION('',(1.,0.,0.));
#157=DIRECTION('',(0.,-1.,0.));
#158=DIRECTION('',(0.,0.,-1.));
#159=DIRECTION('',(1.,0.,0.));
#160=DIRECTION('',(0.,0.,1.));
#161=DIRECTION('',(1.,0.,0.));
#162=DIRECTION('',(0.,0.,1.));
#163=DIRECTION('',(-1.,0.,0.));
#164=DIRECTION('',(0.,0.,1.));
#165=DIRECTION('',(0.,-1.,0.));
#166=DIRECTION('',(0.,-1.,0.));
#167=DIRECTION('',(0.,0.,1.));
#168=DIRECTION('',(0.,-1.,0.));
#169=DIRECTION('',(0.,0.,-1.));
#170=DIRECTION('',(1.,0.,0.));
#171=DIRECTION('',(1.,0.,0.));
#172=DIRECTION('',(0.,0.,1.));
#173=DIRECTION('',(-1.,0.,0.));
#174=DIRECTION('',(0.,0.,1.));
#175=DIRECTION('',(0.,-1.,0.));
#176=DIRECTION('',(0.,-1.,0.));
#177=DIRECTION('',(0.,0.,1.));
#178=DIRECTION('',(1.,0.,0.));
#179=DIRECTION('',(0.,0.,1.));
#180=DIRECTION('',(1.,0.,0.));
#181=DIRECTION('',(0.,0.,1.));
#182=DIRECTION('',(1.,0.,0.));
#183=CARTESIAN_POINT('',(0.,0.,0.));
#184=CARTESIAN_POINT('',(0.025732878145799,-0.0364042986989021,0.0104));
#185=CARTESIAN_POINT('',(0.025732878145799,-0.0364042986989021,0.0104));
#186=CARTESIAN_POINT('',(0.0273548182404607,-0.0364042986989021,0.0104));
#187=CARTESIAN_POINT('',(0.025732878145799,-0.0364042986989021,0.0109));
#188=CARTESIAN_POINT('',(0.0273548182404607,-0.0364042986989021,0.0109));
#189=CARTESIAN_POINT('',(0.0259197185980529,-0.0327948107421398,0.0104));
#190=CARTESIAN_POINT('',(0.0259197185980529,-0.0327948107421398,0.015));
#191=CARTESIAN_POINT('',(0.0224197185980529,-0.0327948107421398,0.015));
#192=CARTESIAN_POINT('',(0.0294197185980529,-0.0327948107421398,0.015));
#193=CARTESIAN_POINT('',(0.0294197185980529,-0.0327948107421398,0.0104));
#194=CARTESIAN_POINT('',(0.0294197185980529,-0.0327948107421398,0.0104));
#195=CARTESIAN_POINT('',(0.0259197185980529,-0.0327948107421398,0.0104));
#196=CARTESIAN_POINT('',(0.0224197185980529,-0.0327948107421398,0.0104));
#197=CARTESIAN_POINT('',(0.0224197185980529,-0.0327948107421398,0.0104));
#198=CARTESIAN_POINT('',(0.0224197185980529,-0.0362948107421398,0.0104));
#199=CARTESIAN_POINT('',(0.0224197185980529,-0.0362948107421398,0.015));
#200=CARTESIAN_POINT('',(0.0224197185980529,-0.0397948107421398,0.015));
#201=CARTESIAN_POINT('',(0.0224197185980529,-0.0362948107421398,0.0104));
#202=CARTESIAN_POINT('',(0.0224197185980529,-0.0397948107421398,0.0104));
#203=CARTESIAN_POINT('',(0.0224197185980529,-0.0397948107421398,0.0104));
#204=CARTESIAN_POINT('',(0.0259197185980529,-0.0397948107421398,0.0104));
#205=CARTESIAN_POINT('',(0.0259197185980529,-0.0397948107421398,0.015));
#206=CARTESIAN_POINT('',(0.0294197185980529,-0.0397948107421398,0.015));
#207=CARTESIAN_POINT('',(0.0259197185980529,-0.0397948107421398,0.0104));
#208=CARTESIAN_POINT('',(0.0294197185980529,-0.0397948107421398,0.0104));
#209=CARTESIAN_POINT('',(0.0294197185980529,-0.0397948107421398,0.0104));
#210=CARTESIAN_POINT('',(0.0294197185980529,-0.0362948107421398,0.0104));
#211=CARTESIAN_POINT('',(0.0294197185980529,-0.0362948107421398,0.015));
#212=CARTESIAN_POINT('',(0.0294197185980529,-0.0362948107421398,0.0104));
#213=CARTESIAN_POINT('',(0.00021498727202416,-0.00963000208139419,0.0104));
#214=CARTESIAN_POINT('',(0.00021498727202416,-0.00963000208139419,0.015));
#215=CARTESIAN_POINT('',(0.00021498727202416,-0.00963000208139419,0.0109));
#216=MECHANICAL_DESIGN_GEOMETRIC_PRESENTATION_REPRESENTATION('',(#127),
#217);
#217=(
GEOMETRIC_REPRESENTATION_CONTEXT(3)
GLOBAL_UNCERTAINTY_ASSIGNED_CONTEXT((#218))
GLOBAL_UNIT_ASSIGNED_CONTEXT((#221,#220,#219))
REPRESENTATION_CONTEXT('Part 50','TOP_LEVEL_ASSEMBLY_PART')
);
#218=UNCERTAINTY_MEASURE_WITH_UNIT(LENGTH_MEASURE(1.E-8),#221,
'DISTANCE_ACCURACY_VALUE','Maximum Tolerance applied to model');
#219=(
NAMED_UNIT(*)
SI_UNIT($,.STERADIAN.)
SOLID_ANGLE_UNIT()
);
#220=(
NAMED_UNIT(*)
PLANE_ANGLE_UNIT()
SI_UNIT($,.RADIAN.)
);
#221=(
LENGTH_UNIT()
NAMED_UNIT(*)
SI_UNIT($,.METRE.)
);
#222=PRODUCT_DEFINITION_SHAPE('','',#223);
#223=PRODUCT_DEFINITION('','',#225,#224);
#224=PRODUCT_DEFINITION_CONTEXT('',#231,'design');
#225=PRODUCT_DEFINITION_FORMATION_WITH_SPECIFIED_SOURCE('','',#227,
 .NOT_KNOWN.);
#226=PRODUCT_RELATED_PRODUCT_CATEGORY('','',(#227));
#227=PRODUCT('Part 50','Part 50','Part 50',(#229));
#228=PRODUCT_CATEGORY('','');
#229=PRODUCT_CONTEXT('',#231,'mechanical');
#230=APPLICATION_PROTOCOL_DEFINITION('international standard',
'ap242_managed_model_based_3d_engineering',2020,#231);
#231=APPLICATION_CONTEXT('managed model based 3d engineering');
ENDSEC;
END-ISO-10303-21;
