ISO-10303-21;
HEADER;
/* Generated by software containing ST-Developer
 * from STEP Tools, Inc. (www.steptools.com) 
 */
/* OPTION: using custom renumber hook */

FILE_DESCRIPTION(
/* description */ ('STEP AP242 Edition 2',
'CAx-IF Rec.Pracs.---Representation and Presentation of Product Manufa
cturing Information (PMI)---4.0---2014-10-13',
'CAx-IF Rec.Pracs.---3D Tessellated Geometry---0.4---2014-09-14','2;1',
'CAx-IF Rec.Pracs.---User Defined Attributes---1.5---2016-08-15'),
/* implementation_level */ '2;1');

FILE_NAME(
/* name */ 'Part Studio 1 - Part 45',
/* time_stamp */ '2026-06-02T13:50:30Z',
/* author */ (''),
/* organization */ (''),
/* preprocessor_version */ 'ST-DEVELOPER v20',
/* originating_system */ 'ONSHAPE BY PTC INC, 1.215',
/* authorisation */ '  ');

FILE_SCHEMA (('AP242_MANAGED_MODEL_BASED_3D_ENGINEERING_MIM_LF { 1 0 10303 442 3 1 4 }'));
ENDSEC;

DATA;
#10=SHAPE_REPRESENTATION_RELATIONSHIP('','',#1055,#11);
#11=ADVANCED_BREP_SHAPE_REPRESENTATION('',(#1053),#1677);
#12=CYLINDRICAL_SURFACE('',#1104,0.00531126983722079);
#13=CYLINDRICAL_SURFACE('',#1106,0.00531126983722078);
#14=CYLINDRICAL_SURFACE('',#1108,0.00531126983722081);
#15=CYLINDRICAL_SURFACE('',#1110,0.00531126983722081);
#16=CYLINDRICAL_SURFACE('',#1112,0.005);
#17=CYLINDRICAL_SURFACE('',#1114,0.005);
#18=CYLINDRICAL_SURFACE('',#1119,0.001);
#19=CYLINDRICAL_SURFACE('',#1120,0.001);
#20=CYLINDRICAL_SURFACE('',#1121,0.001);
#21=CYLINDRICAL_SURFACE('',#1122,0.001);
#22=CIRCLE('',#1082,0.00531126983722079);
#23=CIRCLE('',#1083,0.00531126983722081);
#24=CIRCLE('',#1084,0.00531126983722081);
#25=CIRCLE('',#1085,0.00531126983722078);
#26=CIRCLE('',#1086,0.005);
#27=CIRCLE('',#1087,0.005);
#28=CIRCLE('',#1088,0.001);
#29=CIRCLE('',#1089,0.001);
#30=CIRCLE('',#1090,0.001);
#31=CIRCLE('',#1091,0.001);
#32=CIRCLE('',#1093,0.00531126983722079);
#33=CIRCLE('',#1094,0.00531126983722078);
#34=CIRCLE('',#1095,0.00531126983722081);
#35=CIRCLE('',#1096,0.00531126983722081);
#36=CIRCLE('',#1097,0.005);
#37=CIRCLE('',#1098,0.005);
#38=CIRCLE('',#1099,0.001);
#39=CIRCLE('',#1100,0.001);
#40=CIRCLE('',#1101,0.001);
#41=CIRCLE('',#1102,0.001);
#42=ORIENTED_EDGE('',*,*,#322,.T.);
#43=ORIENTED_EDGE('',*,*,#323,.F.);
#44=ORIENTED_EDGE('',*,*,#324,.F.);
#45=ORIENTED_EDGE('',*,*,#325,.T.);
#46=ORIENTED_EDGE('',*,*,#326,.F.);
#47=ORIENTED_EDGE('',*,*,#325,.F.);
#48=ORIENTED_EDGE('',*,*,#327,.T.);
#49=ORIENTED_EDGE('',*,*,#328,.T.);
#50=ORIENTED_EDGE('',*,*,#329,.F.);
#51=ORIENTED_EDGE('',*,*,#328,.F.);
#52=ORIENTED_EDGE('',*,*,#330,.T.);
#53=ORIENTED_EDGE('',*,*,#331,.T.);
#54=ORIENTED_EDGE('',*,*,#332,.T.);
#55=ORIENTED_EDGE('',*,*,#333,.F.);
#56=ORIENTED_EDGE('',*,*,#334,.F.);
#57=ORIENTED_EDGE('',*,*,#335,.T.);
#58=ORIENTED_EDGE('',*,*,#336,.F.);
#59=ORIENTED_EDGE('',*,*,#335,.F.);
#60=ORIENTED_EDGE('',*,*,#337,.T.);
#61=ORIENTED_EDGE('',*,*,#338,.T.);
#62=ORIENTED_EDGE('',*,*,#339,.F.);
#63=ORIENTED_EDGE('',*,*,#338,.F.);
#64=ORIENTED_EDGE('',*,*,#340,.T.);
#65=ORIENTED_EDGE('',*,*,#341,.T.);
#66=ORIENTED_EDGE('',*,*,#342,.T.);
#67=ORIENTED_EDGE('',*,*,#343,.F.);
#68=ORIENTED_EDGE('',*,*,#344,.F.);
#69=ORIENTED_EDGE('',*,*,#345,.T.);
#70=ORIENTED_EDGE('',*,*,#346,.F.);
#71=ORIENTED_EDGE('',*,*,#345,.F.);
#72=ORIENTED_EDGE('',*,*,#347,.T.);
#73=ORIENTED_EDGE('',*,*,#348,.T.);
#74=ORIENTED_EDGE('',*,*,#349,.F.);
#75=ORIENTED_EDGE('',*,*,#348,.F.);
#76=ORIENTED_EDGE('',*,*,#350,.T.);
#77=ORIENTED_EDGE('',*,*,#351,.T.);
#78=ORIENTED_EDGE('',*,*,#352,.T.);
#79=ORIENTED_EDGE('',*,*,#353,.F.);
#80=ORIENTED_EDGE('',*,*,#354,.F.);
#81=ORIENTED_EDGE('',*,*,#355,.T.);
#82=ORIENTED_EDGE('',*,*,#356,.F.);
#83=ORIENTED_EDGE('',*,*,#355,.F.);
#84=ORIENTED_EDGE('',*,*,#357,.T.);
#85=ORIENTED_EDGE('',*,*,#358,.T.);
#86=ORIENTED_EDGE('',*,*,#359,.F.);
#87=ORIENTED_EDGE('',*,*,#358,.F.);
#88=ORIENTED_EDGE('',*,*,#360,.T.);
#89=ORIENTED_EDGE('',*,*,#361,.T.);
#90=ORIENTED_EDGE('',*,*,#362,.T.);
#91=ORIENTED_EDGE('',*,*,#363,.F.);
#92=ORIENTED_EDGE('',*,*,#364,.F.);
#93=ORIENTED_EDGE('',*,*,#365,.T.);
#94=ORIENTED_EDGE('',*,*,#366,.F.);
#95=ORIENTED_EDGE('',*,*,#365,.F.);
#96=ORIENTED_EDGE('',*,*,#367,.T.);
#97=ORIENTED_EDGE('',*,*,#368,.T.);
#98=ORIENTED_EDGE('',*,*,#369,.F.);
#99=ORIENTED_EDGE('',*,*,#368,.F.);
#100=ORIENTED_EDGE('',*,*,#370,.T.);
#101=ORIENTED_EDGE('',*,*,#371,.T.);
#102=ORIENTED_EDGE('',*,*,#372,.T.);
#103=ORIENTED_EDGE('',*,*,#373,.F.);
#104=ORIENTED_EDGE('',*,*,#374,.F.);
#105=ORIENTED_EDGE('',*,*,#375,.T.);
#106=ORIENTED_EDGE('',*,*,#376,.F.);
#107=ORIENTED_EDGE('',*,*,#375,.F.);
#108=ORIENTED_EDGE('',*,*,#377,.T.);
#109=ORIENTED_EDGE('',*,*,#378,.T.);
#110=ORIENTED_EDGE('',*,*,#379,.F.);
#111=ORIENTED_EDGE('',*,*,#378,.F.);
#112=ORIENTED_EDGE('',*,*,#380,.T.);
#113=ORIENTED_EDGE('',*,*,#381,.T.);
#114=ORIENTED_EDGE('',*,*,#382,.T.);
#115=ORIENTED_EDGE('',*,*,#331,.F.);
#116=ORIENTED_EDGE('',*,*,#383,.F.);
#117=ORIENTED_EDGE('',*,*,#323,.T.);
#118=ORIENTED_EDGE('',*,*,#384,.T.);
#119=ORIENTED_EDGE('',*,*,#341,.F.);
#120=ORIENTED_EDGE('',*,*,#385,.F.);
#121=ORIENTED_EDGE('',*,*,#333,.T.);
#122=ORIENTED_EDGE('',*,*,#386,.T.);
#123=ORIENTED_EDGE('',*,*,#351,.F.);
#124=ORIENTED_EDGE('',*,*,#387,.F.);
#125=ORIENTED_EDGE('',*,*,#343,.T.);
#126=ORIENTED_EDGE('',*,*,#388,.T.);
#127=ORIENTED_EDGE('',*,*,#361,.F.);
#128=ORIENTED_EDGE('',*,*,#389,.F.);
#129=ORIENTED_EDGE('',*,*,#353,.T.);
#130=ORIENTED_EDGE('',*,*,#390,.T.);
#131=ORIENTED_EDGE('',*,*,#371,.F.);
#132=ORIENTED_EDGE('',*,*,#391,.F.);
#133=ORIENTED_EDGE('',*,*,#363,.T.);
#134=ORIENTED_EDGE('',*,*,#392,.T.);
#135=ORIENTED_EDGE('',*,*,#381,.F.);
#136=ORIENTED_EDGE('',*,*,#393,.F.);
#137=ORIENTED_EDGE('',*,*,#373,.T.);
#138=ORIENTED_EDGE('',*,*,#374,.T.);
#139=ORIENTED_EDGE('',*,*,#393,.T.);
#140=ORIENTED_EDGE('',*,*,#380,.F.);
#141=ORIENTED_EDGE('',*,*,#377,.F.);
#142=ORIENTED_EDGE('',*,*,#364,.T.);
#143=ORIENTED_EDGE('',*,*,#391,.T.);
#144=ORIENTED_EDGE('',*,*,#370,.F.);
#145=ORIENTED_EDGE('',*,*,#367,.F.);
#146=ORIENTED_EDGE('',*,*,#354,.T.);
#147=ORIENTED_EDGE('',*,*,#389,.T.);
#148=ORIENTED_EDGE('',*,*,#360,.F.);
#149=ORIENTED_EDGE('',*,*,#357,.F.);
#150=ORIENTED_EDGE('',*,*,#344,.T.);
#151=ORIENTED_EDGE('',*,*,#387,.T.);
#152=ORIENTED_EDGE('',*,*,#350,.F.);
#153=ORIENTED_EDGE('',*,*,#347,.F.);
#154=ORIENTED_EDGE('',*,*,#334,.T.);
#155=ORIENTED_EDGE('',*,*,#385,.T.);
#156=ORIENTED_EDGE('',*,*,#340,.F.);
#157=ORIENTED_EDGE('',*,*,#337,.F.);
#158=ORIENTED_EDGE('',*,*,#324,.T.);
#159=ORIENTED_EDGE('',*,*,#383,.T.);
#160=ORIENTED_EDGE('',*,*,#330,.F.);
#161=ORIENTED_EDGE('',*,*,#327,.F.);
#162=ORIENTED_EDGE('',*,*,#394,.F.);
#163=ORIENTED_EDGE('',*,*,#395,.T.);
#164=ORIENTED_EDGE('',*,*,#396,.F.);
#165=ORIENTED_EDGE('',*,*,#397,.F.);
#166=ORIENTED_EDGE('',*,*,#398,.F.);
#167=ORIENTED_EDGE('',*,*,#399,.F.);
#168=ORIENTED_EDGE('',*,*,#400,.T.);
#169=ORIENTED_EDGE('',*,*,#401,.F.);
#170=ORIENTED_EDGE('',*,*,#402,.T.);
#171=ORIENTED_EDGE('',*,*,#403,.F.);
#172=ORIENTED_EDGE('',*,*,#404,.F.);
#173=ORIENTED_EDGE('',*,*,#405,.F.);
#174=ORIENTED_EDGE('',*,*,#406,.F.);
#175=ORIENTED_EDGE('',*,*,#407,.F.);
#176=ORIENTED_EDGE('',*,*,#408,.T.);
#177=ORIENTED_EDGE('',*,*,#409,.F.);
#178=ORIENTED_EDGE('',*,*,#410,.F.);
#179=ORIENTED_EDGE('',*,*,#411,.T.);
#180=ORIENTED_EDGE('',*,*,#412,.T.);
#181=ORIENTED_EDGE('',*,*,#413,.F.);
#182=ORIENTED_EDGE('',*,*,#414,.T.);
#183=ORIENTED_EDGE('',*,*,#415,.T.);
#184=ORIENTED_EDGE('',*,*,#416,.T.);
#185=ORIENTED_EDGE('',*,*,#417,.T.);
#186=ORIENTED_EDGE('',*,*,#372,.F.);
#187=ORIENTED_EDGE('',*,*,#376,.T.);
#188=ORIENTED_EDGE('',*,*,#379,.T.);
#189=ORIENTED_EDGE('',*,*,#392,.F.);
#190=ORIENTED_EDGE('',*,*,#362,.F.);
#191=ORIENTED_EDGE('',*,*,#366,.T.);
#192=ORIENTED_EDGE('',*,*,#369,.T.);
#193=ORIENTED_EDGE('',*,*,#390,.F.);
#194=ORIENTED_EDGE('',*,*,#352,.F.);
#195=ORIENTED_EDGE('',*,*,#356,.T.);
#196=ORIENTED_EDGE('',*,*,#359,.T.);
#197=ORIENTED_EDGE('',*,*,#388,.F.);
#198=ORIENTED_EDGE('',*,*,#342,.F.);
#199=ORIENTED_EDGE('',*,*,#346,.T.);
#200=ORIENTED_EDGE('',*,*,#349,.T.);
#201=ORIENTED_EDGE('',*,*,#386,.F.);
#202=ORIENTED_EDGE('',*,*,#332,.F.);
#203=ORIENTED_EDGE('',*,*,#336,.T.);
#204=ORIENTED_EDGE('',*,*,#339,.T.);
#205=ORIENTED_EDGE('',*,*,#384,.F.);
#206=ORIENTED_EDGE('',*,*,#322,.F.);
#207=ORIENTED_EDGE('',*,*,#326,.T.);
#208=ORIENTED_EDGE('',*,*,#329,.T.);
#209=ORIENTED_EDGE('',*,*,#382,.F.);
#210=ORIENTED_EDGE('',*,*,#418,.T.);
#211=ORIENTED_EDGE('',*,*,#419,.T.);
#212=ORIENTED_EDGE('',*,*,#420,.T.);
#213=ORIENTED_EDGE('',*,*,#421,.T.);
#214=ORIENTED_EDGE('',*,*,#422,.F.);
#215=ORIENTED_EDGE('',*,*,#423,.T.);
#216=ORIENTED_EDGE('',*,*,#424,.F.);
#217=ORIENTED_EDGE('',*,*,#425,.T.);
#218=ORIENTED_EDGE('',*,*,#426,.T.);
#219=ORIENTED_EDGE('',*,*,#427,.T.);
#220=ORIENTED_EDGE('',*,*,#428,.T.);
#221=ORIENTED_EDGE('',*,*,#429,.F.);
#222=ORIENTED_EDGE('',*,*,#430,.F.);
#223=ORIENTED_EDGE('',*,*,#431,.T.);
#224=ORIENTED_EDGE('',*,*,#432,.T.);
#225=ORIENTED_EDGE('',*,*,#433,.F.);
#226=ORIENTED_EDGE('',*,*,#434,.F.);
#227=ORIENTED_EDGE('',*,*,#435,.F.);
#228=ORIENTED_EDGE('',*,*,#436,.F.);
#229=ORIENTED_EDGE('',*,*,#437,.F.);
#230=ORIENTED_EDGE('',*,*,#418,.F.);
#231=ORIENTED_EDGE('',*,*,#438,.F.);
#232=ORIENTED_EDGE('',*,*,#398,.T.);
#233=ORIENTED_EDGE('',*,*,#439,.T.);
#234=ORIENTED_EDGE('',*,*,#419,.F.);
#235=ORIENTED_EDGE('',*,*,#439,.F.);
#236=ORIENTED_EDGE('',*,*,#397,.T.);
#237=ORIENTED_EDGE('',*,*,#440,.T.);
#238=ORIENTED_EDGE('',*,*,#441,.F.);
#239=ORIENTED_EDGE('',*,*,#442,.T.);
#240=ORIENTED_EDGE('',*,*,#443,.T.);
#241=ORIENTED_EDGE('',*,*,#404,.T.);
#242=ORIENTED_EDGE('',*,*,#444,.T.);
#243=ORIENTED_EDGE('',*,*,#420,.F.);
#244=ORIENTED_EDGE('',*,*,#440,.F.);
#245=ORIENTED_EDGE('',*,*,#396,.T.);
#246=ORIENTED_EDGE('',*,*,#421,.F.);
#247=ORIENTED_EDGE('',*,*,#444,.F.);
#248=ORIENTED_EDGE('',*,*,#403,.T.);
#249=ORIENTED_EDGE('',*,*,#445,.T.);
#250=ORIENTED_EDGE('',*,*,#422,.T.);
#251=ORIENTED_EDGE('',*,*,#445,.F.);
#252=ORIENTED_EDGE('',*,*,#402,.F.);
#253=ORIENTED_EDGE('',*,*,#446,.T.);
#254=ORIENTED_EDGE('',*,*,#423,.F.);
#255=ORIENTED_EDGE('',*,*,#446,.F.);
#256=ORIENTED_EDGE('',*,*,#401,.T.);
#257=ORIENTED_EDGE('',*,*,#447,.T.);
#258=ORIENTED_EDGE('',*,*,#424,.T.);
#259=ORIENTED_EDGE('',*,*,#447,.F.);
#260=ORIENTED_EDGE('',*,*,#400,.F.);
#261=ORIENTED_EDGE('',*,*,#448,.T.);
#262=ORIENTED_EDGE('',*,*,#425,.F.);
#263=ORIENTED_EDGE('',*,*,#448,.F.);
#264=ORIENTED_EDGE('',*,*,#399,.T.);
#265=ORIENTED_EDGE('',*,*,#438,.T.);
#266=ORIENTED_EDGE('',*,*,#427,.F.);
#267=ORIENTED_EDGE('',*,*,#449,.F.);
#268=ORIENTED_EDGE('',*,*,#406,.T.);
#269=ORIENTED_EDGE('',*,*,#450,.T.);
#270=ORIENTED_EDGE('',*,*,#426,.F.);
#271=ORIENTED_EDGE('',*,*,#451,.F.);
#272=ORIENTED_EDGE('',*,*,#407,.T.);
#273=ORIENTED_EDGE('',*,*,#449,.T.);
#274=ORIENTED_EDGE('',*,*,#429,.T.);
#275=ORIENTED_EDGE('',*,*,#452,.F.);
#276=ORIENTED_EDGE('',*,*,#408,.F.);
#277=ORIENTED_EDGE('',*,*,#451,.T.);
#278=ORIENTED_EDGE('',*,*,#428,.F.);
#279=ORIENTED_EDGE('',*,*,#450,.F.);
#280=ORIENTED_EDGE('',*,*,#409,.T.);
#281=ORIENTED_EDGE('',*,*,#452,.T.);
#282=ORIENTED_EDGE('',*,*,#431,.F.);
#283=ORIENTED_EDGE('',*,*,#453,.F.);
#284=ORIENTED_EDGE('',*,*,#410,.T.);
#285=ORIENTED_EDGE('',*,*,#454,.T.);
#286=ORIENTED_EDGE('',*,*,#430,.T.);
#287=ORIENTED_EDGE('',*,*,#455,.F.);
#288=ORIENTED_EDGE('',*,*,#411,.F.);
#289=ORIENTED_EDGE('',*,*,#453,.T.);
#290=ORIENTED_EDGE('',*,*,#433,.T.);
#291=ORIENTED_EDGE('',*,*,#456,.F.);
#292=ORIENTED_EDGE('',*,*,#412,.F.);
#293=ORIENTED_EDGE('',*,*,#455,.T.);
#294=ORIENTED_EDGE('',*,*,#432,.F.);
#295=ORIENTED_EDGE('',*,*,#454,.F.);
#296=ORIENTED_EDGE('',*,*,#413,.T.);
#297=ORIENTED_EDGE('',*,*,#456,.T.);
#298=ORIENTED_EDGE('',*,*,#414,.F.);
#299=ORIENTED_EDGE('',*,*,#434,.T.);
#300=ORIENTED_EDGE('',*,*,#415,.F.);
#301=ORIENTED_EDGE('',*,*,#435,.T.);
#302=ORIENTED_EDGE('',*,*,#416,.F.);
#303=ORIENTED_EDGE('',*,*,#436,.T.);
#304=ORIENTED_EDGE('',*,*,#417,.F.);
#305=ORIENTED_EDGE('',*,*,#437,.T.);
#306=ORIENTED_EDGE('',*,*,#457,.F.);
#307=ORIENTED_EDGE('',*,*,#458,.T.);
#308=ORIENTED_EDGE('',*,*,#441,.T.);
#309=ORIENTED_EDGE('',*,*,#395,.F.);
#310=ORIENTED_EDGE('',*,*,#405,.T.);
#311=ORIENTED_EDGE('',*,*,#443,.F.);
#312=ORIENTED_EDGE('',*,*,#459,.F.);
#313=ORIENTED_EDGE('',*,*,#460,.T.);
#314=ORIENTED_EDGE('',*,*,#394,.T.);
#315=ORIENTED_EDGE('',*,*,#460,.F.);
#316=ORIENTED_EDGE('',*,*,#461,.F.);
#317=ORIENTED_EDGE('',*,*,#457,.T.);
#318=ORIENTED_EDGE('',*,*,#442,.F.);
#319=ORIENTED_EDGE('',*,*,#458,.F.);
#320=ORIENTED_EDGE('',*,*,#461,.T.);
#321=ORIENTED_EDGE('',*,*,#459,.T.);
#322=EDGE_CURVE('',#462,#463,#558,.T.);
#323=EDGE_CURVE('',#464,#463,#559,.T.);
#324=EDGE_CURVE('',#465,#464,#560,.T.);
#325=EDGE_CURVE('',#465,#462,#561,.T.);
#326=EDGE_CURVE('',#462,#466,#562,.T.);
#327=EDGE_CURVE('',#465,#467,#563,.T.);
#328=EDGE_CURVE('',#467,#466,#564,.T.);
#329=EDGE_CURVE('',#466,#468,#565,.T.);
#330=EDGE_CURVE('',#467,#469,#566,.T.);
#331=EDGE_CURVE('',#469,#468,#567,.T.);
#332=EDGE_CURVE('',#470,#471,#568,.T.);
#333=EDGE_CURVE('',#472,#471,#569,.T.);
#334=EDGE_CURVE('',#473,#472,#570,.T.);
#335=EDGE_CURVE('',#473,#470,#571,.T.);
#336=EDGE_CURVE('',#470,#474,#572,.T.);
#337=EDGE_CURVE('',#473,#475,#573,.T.);
#338=EDGE_CURVE('',#475,#474,#574,.T.);
#339=EDGE_CURVE('',#474,#476,#575,.T.);
#340=EDGE_CURVE('',#475,#477,#576,.T.);
#341=EDGE_CURVE('',#477,#476,#577,.T.);
#342=EDGE_CURVE('',#478,#479,#578,.T.);
#343=EDGE_CURVE('',#480,#479,#579,.T.);
#344=EDGE_CURVE('',#481,#480,#580,.T.);
#345=EDGE_CURVE('',#481,#478,#581,.T.);
#346=EDGE_CURVE('',#478,#482,#582,.T.);
#347=EDGE_CURVE('',#481,#483,#583,.T.);
#348=EDGE_CURVE('',#483,#482,#584,.T.);
#349=EDGE_CURVE('',#482,#484,#585,.T.);
#350=EDGE_CURVE('',#483,#485,#586,.T.);
#351=EDGE_CURVE('',#485,#484,#587,.T.);
#352=EDGE_CURVE('',#486,#487,#588,.T.);
#353=EDGE_CURVE('',#488,#487,#589,.T.);
#354=EDGE_CURVE('',#489,#488,#590,.T.);
#355=EDGE_CURVE('',#489,#486,#591,.T.);
#356=EDGE_CURVE('',#486,#490,#592,.T.);
#357=EDGE_CURVE('',#489,#491,#593,.T.);
#358=EDGE_CURVE('',#491,#490,#594,.T.);
#359=EDGE_CURVE('',#490,#492,#595,.T.);
#360=EDGE_CURVE('',#491,#493,#596,.T.);
#361=EDGE_CURVE('',#493,#492,#597,.T.);
#362=EDGE_CURVE('',#494,#495,#598,.T.);
#363=EDGE_CURVE('',#496,#495,#599,.T.);
#364=EDGE_CURVE('',#497,#496,#600,.T.);
#365=EDGE_CURVE('',#497,#494,#601,.T.);
#366=EDGE_CURVE('',#494,#498,#602,.T.);
#367=EDGE_CURVE('',#497,#499,#603,.T.);
#368=EDGE_CURVE('',#499,#498,#604,.T.);
#369=EDGE_CURVE('',#498,#500,#605,.T.);
#370=EDGE_CURVE('',#499,#501,#606,.T.);
#371=EDGE_CURVE('',#501,#500,#607,.T.);
#372=EDGE_CURVE('',#502,#503,#608,.T.);
#373=EDGE_CURVE('',#504,#503,#609,.T.);
#374=EDGE_CURVE('',#505,#504,#610,.T.);
#375=EDGE_CURVE('',#505,#502,#611,.T.);
#376=EDGE_CURVE('',#502,#506,#612,.T.);
#377=EDGE_CURVE('',#505,#507,#613,.T.);
#378=EDGE_CURVE('',#507,#506,#614,.T.);
#379=EDGE_CURVE('',#506,#508,#615,.T.);
#380=EDGE_CURVE('',#507,#509,#616,.T.);
#381=EDGE_CURVE('',#509,#508,#617,.T.);
#382=EDGE_CURVE('',#463,#468,#618,.T.);
#383=EDGE_CURVE('',#464,#469,#619,.T.);
#384=EDGE_CURVE('',#471,#476,#620,.T.);
#385=EDGE_CURVE('',#472,#477,#621,.T.);
#386=EDGE_CURVE('',#479,#484,#622,.T.);
#387=EDGE_CURVE('',#480,#485,#623,.T.);
#388=EDGE_CURVE('',#487,#492,#624,.T.);
#389=EDGE_CURVE('',#488,#493,#625,.T.);
#390=EDGE_CURVE('',#495,#500,#626,.T.);
#391=EDGE_CURVE('',#496,#501,#627,.T.);
#392=EDGE_CURVE('',#503,#508,#628,.T.);
#393=EDGE_CURVE('',#504,#509,#629,.T.);
#394=EDGE_CURVE('',#510,#511,#630,.T.);
#395=EDGE_CURVE('',#510,#512,#631,.T.);
#396=EDGE_CURVE('',#513,#512,#632,.T.);
#397=EDGE_CURVE('',#514,#513,#22,.T.);
#398=EDGE_CURVE('',#515,#514,#633,.T.);
#399=EDGE_CURVE('',#516,#515,#23,.T.);
#400=EDGE_CURVE('',#516,#517,#634,.T.);
#401=EDGE_CURVE('',#518,#517,#24,.T.);
#402=EDGE_CURVE('',#518,#519,#635,.T.);
#403=EDGE_CURVE('',#520,#519,#25,.T.);
#404=EDGE_CURVE('',#521,#520,#636,.T.);
#405=EDGE_CURVE('',#511,#521,#637,.T.);
#406=EDGE_CURVE('',#522,#523,#638,.T.);
#407=EDGE_CURVE('',#524,#522,#26,.T.);
#408=EDGE_CURVE('',#524,#525,#639,.T.);
#409=EDGE_CURVE('',#523,#525,#27,.T.);
#410=EDGE_CURVE('',#526,#527,#640,.T.);
#411=EDGE_CURVE('',#526,#528,#641,.T.);
#412=EDGE_CURVE('',#528,#529,#642,.T.);
#413=EDGE_CURVE('',#527,#529,#643,.T.);
#414=EDGE_CURVE('',#530,#530,#28,.T.);
#415=EDGE_CURVE('',#531,#531,#29,.T.);
#416=EDGE_CURVE('',#532,#532,#30,.T.);
#417=EDGE_CURVE('',#533,#533,#31,.T.);
#418=EDGE_CURVE('',#534,#535,#644,.T.);
#419=EDGE_CURVE('',#535,#536,#32,.T.);
#420=EDGE_CURVE('',#536,#537,#645,.T.);
#421=EDGE_CURVE('',#537,#538,#33,.T.);
#422=EDGE_CURVE('',#539,#538,#646,.T.);
#423=EDGE_CURVE('',#539,#540,#34,.T.);
#424=EDGE_CURVE('',#541,#540,#647,.T.);
#425=EDGE_CURVE('',#541,#534,#35,.T.);
#426=EDGE_CURVE('',#542,#543,#36,.T.);
#427=EDGE_CURVE('',#543,#544,#648,.T.);
#428=EDGE_CURVE('',#544,#545,#37,.T.);
#429=EDGE_CURVE('',#542,#545,#649,.T.);
#430=EDGE_CURVE('',#546,#547,#650,.T.);
#431=EDGE_CURVE('',#546,#548,#651,.T.);
#432=EDGE_CURVE('',#548,#549,#652,.T.);
#433=EDGE_CURVE('',#547,#549,#653,.T.);
#434=EDGE_CURVE('',#550,#550,#38,.T.);
#435=EDGE_CURVE('',#551,#551,#39,.T.);
#436=EDGE_CURVE('',#552,#552,#40,.T.);
#437=EDGE_CURVE('',#553,#553,#41,.T.);
#438=EDGE_CURVE('',#515,#534,#654,.T.);
#439=EDGE_CURVE('',#514,#535,#655,.T.);
#440=EDGE_CURVE('',#513,#536,#656,.T.);
#441=EDGE_CURVE('',#554,#512,#657,.T.);
#442=EDGE_CURVE('',#554,#555,#658,.T.);
#443=EDGE_CURVE('',#555,#521,#659,.T.);
#444=EDGE_CURVE('',#520,#537,#660,.T.);
#445=EDGE_CURVE('',#519,#538,#661,.T.);
#446=EDGE_CURVE('',#518,#539,#662,.T.);
#447=EDGE_CURVE('',#517,#540,#663,.T.);
#448=EDGE_CURVE('',#516,#541,#664,.T.);
#449=EDGE_CURVE('',#522,#543,#665,.T.);
#450=EDGE_CURVE('',#523,#544,#666,.T.);
#451=EDGE_CURVE('',#524,#542,#667,.T.);
#452=EDGE_CURVE('',#525,#545,#668,.T.);
#453=EDGE_CURVE('',#526,#546,#669,.T.);
#454=EDGE_CURVE('',#527,#548,#670,.T.);
#455=EDGE_CURVE('',#528,#547,#671,.T.);
#456=EDGE_CURVE('',#529,#549,#672,.T.);
#457=EDGE_CURVE('',#556,#510,#673,.T.);
#458=EDGE_CURVE('',#556,#554,#674,.T.);
#459=EDGE_CURVE('',#557,#555,#675,.T.);
#460=EDGE_CURVE('',#557,#511,#676,.T.);
#461=EDGE_CURVE('',#556,#557,#677,.T.);
#462=VERTEX_POINT('',#1392);
#463=VERTEX_POINT('',#1393);
#464=VERTEX_POINT('',#1395);
#465=VERTEX_POINT('',#1397);
#466=VERTEX_POINT('',#1401);
#467=VERTEX_POINT('',#1403);
#468=VERTEX_POINT('',#1407);
#469=VERTEX_POINT('',#1409);
#470=VERTEX_POINT('',#1413);
#471=VERTEX_POINT('',#1414);
#472=VERTEX_POINT('',#1416);
#473=VERTEX_POINT('',#1418);
#474=VERTEX_POINT('',#1422);
#475=VERTEX_POINT('',#1424);
#476=VERTEX_POINT('',#1428);
#477=VERTEX_POINT('',#1430);
#478=VERTEX_POINT('',#1434);
#479=VERTEX_POINT('',#1435);
#480=VERTEX_POINT('',#1437);
#481=VERTEX_POINT('',#1439);
#482=VERTEX_POINT('',#1443);
#483=VERTEX_POINT('',#1445);
#484=VERTEX_POINT('',#1449);
#485=VERTEX_POINT('',#1451);
#486=VERTEX_POINT('',#1455);
#487=VERTEX_POINT('',#1456);
#488=VERTEX_POINT('',#1458);
#489=VERTEX_POINT('',#1460);
#490=VERTEX_POINT('',#1464);
#491=VERTEX_POINT('',#1466);
#492=VERTEX_POINT('',#1470);
#493=VERTEX_POINT('',#1472);
#494=VERTEX_POINT('',#1476);
#495=VERTEX_POINT('',#1477);
#496=VERTEX_POINT('',#1479);
#497=VERTEX_POINT('',#1481);
#498=VERTEX_POINT('',#1485);
#499=VERTEX_POINT('',#1487);
#500=VERTEX_POINT('',#1491);
#501=VERTEX_POINT('',#1493);
#502=VERTEX_POINT('',#1497);
#503=VERTEX_POINT('',#1498);
#504=VERTEX_POINT('',#1500);
#505=VERTEX_POINT('',#1502);
#506=VERTEX_POINT('',#1506);
#507=VERTEX_POINT('',#1508);
#508=VERTEX_POINT('',#1512);
#509=VERTEX_POINT('',#1514);
#510=VERTEX_POINT('',#1536);
#511=VERTEX_POINT('',#1537);
#512=VERTEX_POINT('',#1539);
#513=VERTEX_POINT('',#1541);
#514=VERTEX_POINT('',#1543);
#515=VERTEX_POINT('',#1545);
#516=VERTEX_POINT('',#1547);
#517=VERTEX_POINT('',#1549);
#518=VERTEX_POINT('',#1551);
#519=VERTEX_POINT('',#1553);
#520=VERTEX_POINT('',#1555);
#521=VERTEX_POINT('',#1557);
#522=VERTEX_POINT('',#1560);
#523=VERTEX_POINT('',#1561);
#524=VERTEX_POINT('',#1563);
#525=VERTEX_POINT('',#1565);
#526=VERTEX_POINT('',#1568);
#527=VERTEX_POINT('',#1569);
#528=VERTEX_POINT('',#1571);
#529=VERTEX_POINT('',#1573);
#530=VERTEX_POINT('',#1576);
#531=VERTEX_POINT('',#1578);
#532=VERTEX_POINT('',#1580);
#533=VERTEX_POINT('',#1582);
#534=VERTEX_POINT('',#1585);
#535=VERTEX_POINT('',#1586);
#536=VERTEX_POINT('',#1588);
#537=VERTEX_POINT('',#1590);
#538=VERTEX_POINT('',#1592);
#539=VERTEX_POINT('',#1594);
#540=VERTEX_POINT('',#1596);
#541=VERTEX_POINT('',#1598);
#542=VERTEX_POINT('',#1601);
#543=VERTEX_POINT('',#1602);
#544=VERTEX_POINT('',#1604);
#545=VERTEX_POINT('',#1606);
#546=VERTEX_POINT('',#1609);
#547=VERTEX_POINT('',#1610);
#548=VERTEX_POINT('',#1612);
#549=VERTEX_POINT('',#1614);
#550=VERTEX_POINT('',#1617);
#551=VERTEX_POINT('',#1619);
#552=VERTEX_POINT('',#1621);
#553=VERTEX_POINT('',#1623);
#554=VERTEX_POINT('',#1631);
#555=VERTEX_POINT('',#1633);
#556=VERTEX_POINT('',#1667);
#557=VERTEX_POINT('',#1671);
#558=LINE('',#1391,#678);
#559=LINE('',#1394,#679);
#560=LINE('',#1396,#680);
#561=LINE('',#1398,#681);
#562=LINE('',#1400,#682);
#563=LINE('',#1402,#683);
#564=LINE('',#1404,#684);
#565=LINE('',#1406,#685);
#566=LINE('',#1408,#686);
#567=LINE('',#1410,#687);
#568=LINE('',#1412,#688);
#569=LINE('',#1415,#689);
#570=LINE('',#1417,#690);
#571=LINE('',#1419,#691);
#572=LINE('',#1421,#692);
#573=LINE('',#1423,#693);
#574=LINE('',#1425,#694);
#575=LINE('',#1427,#695);
#576=LINE('',#1429,#696);
#577=LINE('',#1431,#697);
#578=LINE('',#1433,#698);
#579=LINE('',#1436,#699);
#580=LINE('',#1438,#700);
#581=LINE('',#1440,#701);
#582=LINE('',#1442,#702);
#583=LINE('',#1444,#703);
#584=LINE('',#1446,#704);
#585=LINE('',#1448,#705);
#586=LINE('',#1450,#706);
#587=LINE('',#1452,#707);
#588=LINE('',#1454,#708);
#589=LINE('',#1457,#709);
#590=LINE('',#1459,#710);
#591=LINE('',#1461,#711);
#592=LINE('',#1463,#712);
#593=LINE('',#1465,#713);
#594=LINE('',#1467,#714);
#595=LINE('',#1469,#715);
#596=LINE('',#1471,#716);
#597=LINE('',#1473,#717);
#598=LINE('',#1475,#718);
#599=LINE('',#1478,#719);
#600=LINE('',#1480,#720);
#601=LINE('',#1482,#721);
#602=LINE('',#1484,#722);
#603=LINE('',#1486,#723);
#604=LINE('',#1488,#724);
#605=LINE('',#1490,#725);
#606=LINE('',#1492,#726);
#607=LINE('',#1494,#727);
#608=LINE('',#1496,#728);
#609=LINE('',#1499,#729);
#610=LINE('',#1501,#730);
#611=LINE('',#1503,#731);
#612=LINE('',#1505,#732);
#613=LINE('',#1507,#733);
#614=LINE('',#1509,#734);
#615=LINE('',#1511,#735);
#616=LINE('',#1513,#736);
#617=LINE('',#1515,#737);
#618=LINE('',#1517,#738);
#619=LINE('',#1518,#739);
#620=LINE('',#1520,#740);
#621=LINE('',#1521,#741);
#622=LINE('',#1523,#742);
#623=LINE('',#1524,#743);
#624=LINE('',#1526,#744);
#625=LINE('',#1527,#745);
#626=LINE('',#1529,#746);
#627=LINE('',#1530,#747);
#628=LINE('',#1532,#748);
#629=LINE('',#1533,#749);
#630=LINE('',#1535,#750);
#631=LINE('',#1538,#751);
#632=LINE('',#1540,#752);
#633=LINE('',#1544,#753);
#634=LINE('',#1548,#754);
#635=LINE('',#1552,#755);
#636=LINE('',#1556,#756);
#637=LINE('',#1558,#757);
#638=LINE('',#1559,#758);
#639=LINE('',#1564,#759);
#640=LINE('',#1567,#760);
#641=LINE('',#1570,#761);
#642=LINE('',#1572,#762);
#643=LINE('',#1574,#763);
#644=LINE('',#1584,#764);
#645=LINE('',#1589,#765);
#646=LINE('',#1593,#766);
#647=LINE('',#1597,#767);
#648=LINE('',#1603,#768);
#649=LINE('',#1607,#769);
#650=LINE('',#1608,#770);
#651=LINE('',#1611,#771);
#652=LINE('',#1613,#772);
#653=LINE('',#1615,#773);
#654=LINE('',#1625,#774);
#655=LINE('',#1626,#775);
#656=LINE('',#1628,#776);
#657=LINE('',#1630,#777);
#658=LINE('',#1632,#778);
#659=LINE('',#1634,#779);
#660=LINE('',#1635,#780);
#661=LINE('',#1637,#781);
#662=LINE('',#1639,#782);
#663=LINE('',#1641,#783);
#664=LINE('',#1643,#784);
#665=LINE('',#1646,#785);
#666=LINE('',#1647,#786);
#667=LINE('',#1649,#787);
#668=LINE('',#1651,#788);
#669=LINE('',#1654,#789);
#670=LINE('',#1655,#790);
#671=LINE('',#1657,#791);
#672=LINE('',#1659,#792);
#673=LINE('',#1666,#793);
#674=LINE('',#1668,#794);
#675=LINE('',#1670,#795);
#676=LINE('',#1672,#796);
#677=LINE('',#1674,#797);
#678=VECTOR('',#1131,1.);
#679=VECTOR('',#1132,1.);
#680=VECTOR('',#1133,1.);
#681=VECTOR('',#1134,1.);
#682=VECTOR('',#1137,1.);
#683=VECTOR('',#1138,1.);
#684=VECTOR('',#1139,1.);
#685=VECTOR('',#1142,1.);
#686=VECTOR('',#1143,1.);
#687=VECTOR('',#1144,1.);
#688=VECTOR('',#1147,1.);
#689=VECTOR('',#1148,1.);
#690=VECTOR('',#1149,1.);
#691=VECTOR('',#1150,1.);
#692=VECTOR('',#1153,1.);
#693=VECTOR('',#1154,1.);
#694=VECTOR('',#1155,1.);
#695=VECTOR('',#1158,1.);
#696=VECTOR('',#1159,1.);
#697=VECTOR('',#1160,1.);
#698=VECTOR('',#1163,1.);
#699=VECTOR('',#1164,1.);
#700=VECTOR('',#1165,1.);
#701=VECTOR('',#1166,1.);
#702=VECTOR('',#1169,1.);
#703=VECTOR('',#1170,1.);
#704=VECTOR('',#1171,1.);
#705=VECTOR('',#1174,1.);
#706=VECTOR('',#1175,1.);
#707=VECTOR('',#1176,1.);
#708=VECTOR('',#1179,1.);
#709=VECTOR('',#1180,1.);
#710=VECTOR('',#1181,1.);
#711=VECTOR('',#1182,1.);
#712=VECTOR('',#1185,1.);
#713=VECTOR('',#1186,1.);
#714=VECTOR('',#1187,1.);
#715=VECTOR('',#1190,1.);
#716=VECTOR('',#1191,1.);
#717=VECTOR('',#1192,1.);
#718=VECTOR('',#1195,1.);
#719=VECTOR('',#1196,1.);
#720=VECTOR('',#1197,1.);
#721=VECTOR('',#1198,1.);
#722=VECTOR('',#1201,1.);
#723=VECTOR('',#1202,1.);
#724=VECTOR('',#1203,1.);
#725=VECTOR('',#1206,1.);
#726=VECTOR('',#1207,1.);
#727=VECTOR('',#1208,1.);
#728=VECTOR('',#1211,1.);
#729=VECTOR('',#1212,1.);
#730=VECTOR('',#1213,1.);
#731=VECTOR('',#1214,1.);
#732=VECTOR('',#1217,1.);
#733=VECTOR('',#1218,1.);
#734=VECTOR('',#1219,1.);
#735=VECTOR('',#1222,1.);
#736=VECTOR('',#1223,1.);
#737=VECTOR('',#1224,1.);
#738=VECTOR('',#1227,1.);
#739=VECTOR('',#1228,1.);
#740=VECTOR('',#1231,1.);
#741=VECTOR('',#1232,1.);
#742=VECTOR('',#1235,1.);
#743=VECTOR('',#1236,1.);
#744=VECTOR('',#1239,1.);
#745=VECTOR('',#1240,1.);
#746=VECTOR('',#1243,1.);
#747=VECTOR('',#1244,1.);
#748=VECTOR('',#1247,1.);
#749=VECTOR('',#1248,1.);
#750=VECTOR('',#1251,1.);
#751=VECTOR('',#1252,1.);
#752=VECTOR('',#1253,1.);
#753=VECTOR('',#1256,1.);
#754=VECTOR('',#1259,1.);
#755=VECTOR('',#1262,1.);
#756=VECTOR('',#1265,1.);
#757=VECTOR('',#1266,1.);
#758=VECTOR('',#1267,1.);
#759=VECTOR('',#1270,1.);
#760=VECTOR('',#1273,1.);
#761=VECTOR('',#1274,1.);
#762=VECTOR('',#1275,1.);
#763=VECTOR('',#1276,1.);
#764=VECTOR('',#1287,1.);
#765=VECTOR('',#1290,1.);
#766=VECTOR('',#1293,1.);
#767=VECTOR('',#1296,1.);
#768=VECTOR('',#1301,1.);
#769=VECTOR('',#1304,1.);
#770=VECTOR('',#1305,1.);
#771=VECTOR('',#1306,1.);
#772=VECTOR('',#1307,1.);
#773=VECTOR('',#1308,1.);
#774=VECTOR('',#1319,1.);
#775=VECTOR('',#1320,1.);
#776=VECTOR('',#1323,1.);
#777=VECTOR('',#1326,1.);
#778=VECTOR('',#1327,1.);
#779=VECTOR('',#1328,1.);
#780=VECTOR('',#1329,1.);
#781=VECTOR('',#1332,1.);
#782=VECTOR('',#1335,1.);
#783=VECTOR('',#1338,1.);
#784=VECTOR('',#1341,1.);
#785=VECTOR('',#1346,1.);
#786=VECTOR('',#1347,1.);
#787=VECTOR('',#1350,1.);
#788=VECTOR('',#1353,1.);
#789=VECTOR('',#1358,1.);
#790=VECTOR('',#1359,1.);
#791=VECTOR('',#1362,1.);
#792=VECTOR('',#1365,1.);
#793=VECTOR('',#1378,1.);
#794=VECTOR('',#1379,1.);
#795=VECTOR('',#1382,1.);
#796=VECTOR('',#1383,1.);
#797=VECTOR('',#1386,1.);
#798=EDGE_LOOP('',(#42,#43,#44,#45));
#799=EDGE_LOOP('',(#46,#47,#48,#49));
#800=EDGE_LOOP('',(#50,#51,#52,#53));
#801=EDGE_LOOP('',(#54,#55,#56,#57));
#802=EDGE_LOOP('',(#58,#59,#60,#61));
#803=EDGE_LOOP('',(#62,#63,#64,#65));
#804=EDGE_LOOP('',(#66,#67,#68,#69));
#805=EDGE_LOOP('',(#70,#71,#72,#73));
#806=EDGE_LOOP('',(#74,#75,#76,#77));
#807=EDGE_LOOP('',(#78,#79,#80,#81));
#808=EDGE_LOOP('',(#82,#83,#84,#85));
#809=EDGE_LOOP('',(#86,#87,#88,#89));
#810=EDGE_LOOP('',(#90,#91,#92,#93));
#811=EDGE_LOOP('',(#94,#95,#96,#97));
#812=EDGE_LOOP('',(#98,#99,#100,#101));
#813=EDGE_LOOP('',(#102,#103,#104,#105));
#814=EDGE_LOOP('',(#106,#107,#108,#109));
#815=EDGE_LOOP('',(#110,#111,#112,#113));
#816=EDGE_LOOP('',(#114,#115,#116,#117));
#817=EDGE_LOOP('',(#118,#119,#120,#121));
#818=EDGE_LOOP('',(#122,#123,#124,#125));
#819=EDGE_LOOP('',(#126,#127,#128,#129));
#820=EDGE_LOOP('',(#130,#131,#132,#133));
#821=EDGE_LOOP('',(#134,#135,#136,#137));
#822=EDGE_LOOP('',(#138,#139,#140,#141));
#823=EDGE_LOOP('',(#142,#143,#144,#145));
#824=EDGE_LOOP('',(#146,#147,#148,#149));
#825=EDGE_LOOP('',(#150,#151,#152,#153));
#826=EDGE_LOOP('',(#154,#155,#156,#157));
#827=EDGE_LOOP('',(#158,#159,#160,#161));
#828=EDGE_LOOP('',(#162,#163,#164,#165,#166,#167,#168,#169,#170,#171,#172,
#173));
#829=EDGE_LOOP('',(#174,#175,#176,#177));
#830=EDGE_LOOP('',(#178,#179,#180,#181));
#831=EDGE_LOOP('',(#182));
#832=EDGE_LOOP('',(#183));
#833=EDGE_LOOP('',(#184));
#834=EDGE_LOOP('',(#185));
#835=EDGE_LOOP('',(#186,#187,#188,#189));
#836=EDGE_LOOP('',(#190,#191,#192,#193));
#837=EDGE_LOOP('',(#194,#195,#196,#197));
#838=EDGE_LOOP('',(#198,#199,#200,#201));
#839=EDGE_LOOP('',(#202,#203,#204,#205));
#840=EDGE_LOOP('',(#206,#207,#208,#209));
#841=EDGE_LOOP('',(#210,#211,#212,#213,#214,#215,#216,#217));
#842=EDGE_LOOP('',(#218,#219,#220,#221));
#843=EDGE_LOOP('',(#222,#223,#224,#225));
#844=EDGE_LOOP('',(#226));
#845=EDGE_LOOP('',(#227));
#846=EDGE_LOOP('',(#228));
#847=EDGE_LOOP('',(#229));
#848=EDGE_LOOP('',(#230,#231,#232,#233));
#849=EDGE_LOOP('',(#234,#235,#236,#237));
#850=EDGE_LOOP('',(#238,#239,#240,#241,#242,#243,#244,#245));
#851=EDGE_LOOP('',(#246,#247,#248,#249));
#852=EDGE_LOOP('',(#250,#251,#252,#253));
#853=EDGE_LOOP('',(#254,#255,#256,#257));
#854=EDGE_LOOP('',(#258,#259,#260,#261));
#855=EDGE_LOOP('',(#262,#263,#264,#265));
#856=EDGE_LOOP('',(#266,#267,#268,#269));
#857=EDGE_LOOP('',(#270,#271,#272,#273));
#858=EDGE_LOOP('',(#274,#275,#276,#277));
#859=EDGE_LOOP('',(#278,#279,#280,#281));
#860=EDGE_LOOP('',(#282,#283,#284,#285));
#861=EDGE_LOOP('',(#286,#287,#288,#289));
#862=EDGE_LOOP('',(#290,#291,#292,#293));
#863=EDGE_LOOP('',(#294,#295,#296,#297));
#864=EDGE_LOOP('',(#298));
#865=EDGE_LOOP('',(#299));
#866=EDGE_LOOP('',(#300));
#867=EDGE_LOOP('',(#301));
#868=EDGE_LOOP('',(#302));
#869=EDGE_LOOP('',(#303));
#870=EDGE_LOOP('',(#304));
#871=EDGE_LOOP('',(#305));
#872=EDGE_LOOP('',(#306,#307,#308,#309));
#873=EDGE_LOOP('',(#310,#311,#312,#313));
#874=EDGE_LOOP('',(#314,#315,#316,#317));
#875=EDGE_LOOP('',(#318,#319,#320,#321));
#876=FACE_BOUND('',#798,.T.);
#877=FACE_BOUND('',#799,.T.);
#878=FACE_BOUND('',#800,.T.);
#879=FACE_BOUND('',#801,.T.);
#880=FACE_BOUND('',#802,.T.);
#881=FACE_BOUND('',#803,.T.);
#882=FACE_BOUND('',#804,.T.);
#883=FACE_BOUND('',#805,.T.);
#884=FACE_BOUND('',#806,.T.);
#885=FACE_BOUND('',#807,.T.);
#886=FACE_BOUND('',#808,.T.);
#887=FACE_BOUND('',#809,.T.);
#888=FACE_BOUND('',#810,.T.);
#889=FACE_BOUND('',#811,.T.);
#890=FACE_BOUND('',#812,.T.);
#891=FACE_BOUND('',#813,.T.);
#892=FACE_BOUND('',#814,.T.);
#893=FACE_BOUND('',#815,.T.);
#894=FACE_BOUND('',#816,.T.);
#895=FACE_BOUND('',#817,.T.);
#896=FACE_BOUND('',#818,.T.);
#897=FACE_BOUND('',#819,.T.);
#898=FACE_BOUND('',#820,.T.);
#899=FACE_BOUND('',#821,.T.);
#900=FACE_BOUND('',#822,.T.);
#901=FACE_BOUND('',#823,.T.);
#902=FACE_BOUND('',#824,.T.);
#903=FACE_BOUND('',#825,.T.);
#904=FACE_BOUND('',#826,.T.);
#905=FACE_BOUND('',#827,.T.);
#906=FACE_BOUND('',#828,.T.);
#907=FACE_BOUND('',#829,.T.);
#908=FACE_BOUND('',#830,.T.);
#909=FACE_BOUND('',#831,.T.);
#910=FACE_BOUND('',#832,.T.);
#911=FACE_BOUND('',#833,.T.);
#912=FACE_BOUND('',#834,.T.);
#913=FACE_BOUND('',#835,.T.);
#914=FACE_BOUND('',#836,.T.);
#915=FACE_BOUND('',#837,.T.);
#916=FACE_BOUND('',#838,.T.);
#917=FACE_BOUND('',#839,.T.);
#918=FACE_BOUND('',#840,.T.);
#919=FACE_BOUND('',#841,.T.);
#920=FACE_BOUND('',#842,.T.);
#921=FACE_BOUND('',#843,.T.);
#922=FACE_BOUND('',#844,.T.);
#923=FACE_BOUND('',#845,.T.);
#924=FACE_BOUND('',#846,.T.);
#925=FACE_BOUND('',#847,.T.);
#926=FACE_BOUND('',#848,.T.);
#927=FACE_BOUND('',#849,.T.);
#928=FACE_BOUND('',#850,.T.);
#929=FACE_BOUND('',#851,.T.);
#930=FACE_BOUND('',#852,.T.);
#931=FACE_BOUND('',#853,.T.);
#932=FACE_BOUND('',#854,.T.);
#933=FACE_BOUND('',#855,.T.);
#934=FACE_BOUND('',#856,.T.);
#935=FACE_BOUND('',#857,.T.);
#936=FACE_BOUND('',#858,.T.);
#937=FACE_BOUND('',#859,.T.);
#938=FACE_BOUND('',#860,.T.);
#939=FACE_BOUND('',#861,.T.);
#940=FACE_BOUND('',#862,.T.);
#941=FACE_BOUND('',#863,.T.);
#942=FACE_BOUND('',#864,.T.);
#943=FACE_BOUND('',#865,.T.);
#944=FACE_BOUND('',#866,.T.);
#945=FACE_BOUND('',#867,.T.);
#946=FACE_BOUND('',#868,.T.);
#947=FACE_BOUND('',#869,.T.);
#948=FACE_BOUND('',#870,.T.);
#949=FACE_BOUND('',#871,.T.);
#950=FACE_BOUND('',#872,.T.);
#951=FACE_BOUND('',#873,.T.);
#952=FACE_BOUND('',#874,.T.);
#953=FACE_BOUND('',#875,.T.);
#954=PLANE('',#1057);
#955=PLANE('',#1058);
#956=PLANE('',#1059);
#957=PLANE('',#1060);
#958=PLANE('',#1061);
#959=PLANE('',#1062);
#960=PLANE('',#1063);
#961=PLANE('',#1064);
#962=PLANE('',#1065);
#963=PLANE('',#1066);
#964=PLANE('',#1067);
#965=PLANE('',#1068);
#966=PLANE('',#1069);
#967=PLANE('',#1070);
#968=PLANE('',#1071);
#969=PLANE('',#1072);
#970=PLANE('',#1073);
#971=PLANE('',#1074);
#972=PLANE('',#1075);
#973=PLANE('',#1076);
#974=PLANE('',#1077);
#975=PLANE('',#1078);
#976=PLANE('',#1079);
#977=PLANE('',#1080);
#978=PLANE('',#1081);
#979=PLANE('',#1092);
#980=PLANE('',#1103);
#981=PLANE('',#1105);
#982=PLANE('',#1107);
#983=PLANE('',#1109);
#984=PLANE('',#1111);
#985=PLANE('',#1113);
#986=PLANE('',#1115);
#987=PLANE('',#1116);
#988=PLANE('',#1117);
#989=PLANE('',#1118);
#990=PLANE('',#1123);
#991=PLANE('',#1124);
#992=PLANE('',#1125);
#993=PLANE('',#1126);
#994=ADVANCED_FACE('',(#876),#954,.F.);
#995=ADVANCED_FACE('',(#877),#955,.T.);
#996=ADVANCED_FACE('',(#878),#956,.T.);
#997=ADVANCED_FACE('',(#879),#957,.F.);
#998=ADVANCED_FACE('',(#880),#958,.T.);
#999=ADVANCED_FACE('',(#881),#959,.T.);
#1000=ADVANCED_FACE('',(#882),#960,.F.);
#1001=ADVANCED_FACE('',(#883),#961,.T.);
#1002=ADVANCED_FACE('',(#884),#962,.T.);
#1003=ADVANCED_FACE('',(#885),#963,.F.);
#1004=ADVANCED_FACE('',(#886),#964,.T.);
#1005=ADVANCED_FACE('',(#887),#965,.T.);
#1006=ADVANCED_FACE('',(#888),#966,.F.);
#1007=ADVANCED_FACE('',(#889),#967,.T.);
#1008=ADVANCED_FACE('',(#890),#968,.T.);
#1009=ADVANCED_FACE('',(#891),#969,.F.);
#1010=ADVANCED_FACE('',(#892),#970,.T.);
#1011=ADVANCED_FACE('',(#893),#971,.T.);
#1012=ADVANCED_FACE('',(#894),#972,.F.);
#1013=ADVANCED_FACE('',(#895),#973,.F.);
#1014=ADVANCED_FACE('',(#896),#974,.F.);
#1015=ADVANCED_FACE('',(#897),#975,.F.);
#1016=ADVANCED_FACE('',(#898),#976,.F.);
#1017=ADVANCED_FACE('',(#899),#977,.F.);
#1018=ADVANCED_FACE('',(#900,#901,#902,#903,#904,#905,#906,#907,#908,#909,
#910,#911,#912),#978,.F.);
#1019=ADVANCED_FACE('',(#913,#914,#915,#916,#917,#918,#919,#920,#921,#922,
#923,#924,#925),#979,.T.);
#1020=ADVANCED_FACE('',(#926),#980,.T.);
#1021=ADVANCED_FACE('',(#927),#12,.T.);
#1022=ADVANCED_FACE('',(#928),#981,.T.);
#1023=ADVANCED_FACE('',(#929),#13,.T.);
#1024=ADVANCED_FACE('',(#930),#982,.F.);
#1025=ADVANCED_FACE('',(#931),#14,.T.);
#1026=ADVANCED_FACE('',(#932),#983,.F.);
#1027=ADVANCED_FACE('',(#933),#15,.T.);
#1028=ADVANCED_FACE('',(#934),#984,.T.);
#1029=ADVANCED_FACE('',(#935),#16,.F.);
#1030=ADVANCED_FACE('',(#936),#985,.F.);
#1031=ADVANCED_FACE('',(#937),#17,.F.);
#1032=ADVANCED_FACE('',(#938),#986,.T.);
#1033=ADVANCED_FACE('',(#939),#987,.F.);
#1034=ADVANCED_FACE('',(#940),#988,.F.);
#1035=ADVANCED_FACE('',(#941),#989,.T.);
#1036=ADVANCED_FACE('',(#942,#943),#18,.F.);
#1037=ADVANCED_FACE('',(#944,#945),#19,.F.);
#1038=ADVANCED_FACE('',(#946,#947),#20,.F.);
#1039=ADVANCED_FACE('',(#948,#949),#21,.F.);
#1040=ADVANCED_FACE('',(#950),#990,.F.);
#1041=ADVANCED_FACE('',(#951),#991,.T.);
#1042=ADVANCED_FACE('',(#952),#992,.T.);
#1043=ADVANCED_FACE('',(#953),#993,.T.);
#1044=CLOSED_SHELL('',(#994,#995,#996,#997,#998,#999,#1000,#1001,#1002,
#1003,#1004,#1005,#1006,#1007,#1008,#1009,#1010,#1011,#1012,#1013,#1014,
#1015,#1016,#1017,#1018,#1019,#1020,#1021,#1022,#1023,#1024,#1025,#1026,
#1027,#1028,#1029,#1030,#1031,#1032,#1033,#1034,#1035,#1036,#1037,#1038,
#1039,#1040,#1041,#1042,#1043));
#1045=STYLED_ITEM('',(#1046),#1053);
#1046=PRESENTATION_STYLE_ASSIGNMENT((#1047));
#1047=SURFACE_STYLE_USAGE(.BOTH.,#1048);
#1048=SURFACE_SIDE_STYLE('',(#1049));
#1049=SURFACE_STYLE_FILL_AREA(#1050);
#1050=FILL_AREA_STYLE('',(#1051));
#1051=FILL_AREA_STYLE_COLOUR('',#1052);
#1052=COLOUR_RGB('',0.498039215686275,0.498039215686275,0.498039215686275);
#1053=MANIFOLD_SOLID_BREP('Part 45',#1044);
#1054=SHAPE_DEFINITION_REPRESENTATION(#1682,#1055);
#1055=SHAPE_REPRESENTATION('Part 45',(#1056),#1677);
#1056=AXIS2_PLACEMENT_3D('',#1389,#1127,#1128);
#1057=AXIS2_PLACEMENT_3D('',#1390,#1129,#1130);
#1058=AXIS2_PLACEMENT_3D('',#1399,#1135,#1136);
#1059=AXIS2_PLACEMENT_3D('',#1405,#1140,#1141);
#1060=AXIS2_PLACEMENT_3D('',#1411,#1145,#1146);
#1061=AXIS2_PLACEMENT_3D('',#1420,#1151,#1152);
#1062=AXIS2_PLACEMENT_3D('',#1426,#1156,#1157);
#1063=AXIS2_PLACEMENT_3D('',#1432,#1161,#1162);
#1064=AXIS2_PLACEMENT_3D('',#1441,#1167,#1168);
#1065=AXIS2_PLACEMENT_3D('',#1447,#1172,#1173);
#1066=AXIS2_PLACEMENT_3D('',#1453,#1177,#1178);
#1067=AXIS2_PLACEMENT_3D('',#1462,#1183,#1184);
#1068=AXIS2_PLACEMENT_3D('',#1468,#1188,#1189);
#1069=AXIS2_PLACEMENT_3D('',#1474,#1193,#1194);
#1070=AXIS2_PLACEMENT_3D('',#1483,#1199,#1200);
#1071=AXIS2_PLACEMENT_3D('',#1489,#1204,#1205);
#1072=AXIS2_PLACEMENT_3D('',#1495,#1209,#1210);
#1073=AXIS2_PLACEMENT_3D('',#1504,#1215,#1216);
#1074=AXIS2_PLACEMENT_3D('',#1510,#1220,#1221);
#1075=AXIS2_PLACEMENT_3D('',#1516,#1225,#1226);
#1076=AXIS2_PLACEMENT_3D('',#1519,#1229,#1230);
#1077=AXIS2_PLACEMENT_3D('',#1522,#1233,#1234);
#1078=AXIS2_PLACEMENT_3D('',#1525,#1237,#1238);
#1079=AXIS2_PLACEMENT_3D('',#1528,#1241,#1242);
#1080=AXIS2_PLACEMENT_3D('',#1531,#1245,#1246);
#1081=AXIS2_PLACEMENT_3D('',#1534,#1249,#1250);
#1082=AXIS2_PLACEMENT_3D('',#1542,#1254,#1255);
#1083=AXIS2_PLACEMENT_3D('',#1546,#1257,#1258);
#1084=AXIS2_PLACEMENT_3D('',#1550,#1260,#1261);
#1085=AXIS2_PLACEMENT_3D('',#1554,#1263,#1264);
#1086=AXIS2_PLACEMENT_3D('',#1562,#1268,#1269);
#1087=AXIS2_PLACEMENT_3D('',#1566,#1271,#1272);
#1088=AXIS2_PLACEMENT_3D('',#1575,#1277,#1278);
#1089=AXIS2_PLACEMENT_3D('',#1577,#1279,#1280);
#1090=AXIS2_PLACEMENT_3D('',#1579,#1281,#1282);
#1091=AXIS2_PLACEMENT_3D('',#1581,#1283,#1284);
#1092=AXIS2_PLACEMENT_3D('',#1583,#1285,#1286);
#1093=AXIS2_PLACEMENT_3D('',#1587,#1288,#1289);
#1094=AXIS2_PLACEMENT_3D('',#1591,#1291,#1292);
#1095=AXIS2_PLACEMENT_3D('',#1595,#1294,#1295);
#1096=AXIS2_PLACEMENT_3D('',#1599,#1297,#1298);
#1097=AXIS2_PLACEMENT_3D('',#1600,#1299,#1300);
#1098=AXIS2_PLACEMENT_3D('',#1605,#1302,#1303);
#1099=AXIS2_PLACEMENT_3D('',#1616,#1309,#1310);
#1100=AXIS2_PLACEMENT_3D('',#1618,#1311,#1312);
#1101=AXIS2_PLACEMENT_3D('',#1620,#1313,#1314);
#1102=AXIS2_PLACEMENT_3D('',#1622,#1315,#1316);
#1103=AXIS2_PLACEMENT_3D('',#1624,#1317,#1318);
#1104=AXIS2_PLACEMENT_3D('',#1627,#1321,#1322);
#1105=AXIS2_PLACEMENT_3D('',#1629,#1324,#1325);
#1106=AXIS2_PLACEMENT_3D('',#1636,#1330,#1331);
#1107=AXIS2_PLACEMENT_3D('',#1638,#1333,#1334);
#1108=AXIS2_PLACEMENT_3D('',#1640,#1336,#1337);
#1109=AXIS2_PLACEMENT_3D('',#1642,#1339,#1340);
#1110=AXIS2_PLACEMENT_3D('',#1644,#1342,#1343);
#1111=AXIS2_PLACEMENT_3D('',#1645,#1344,#1345);
#1112=AXIS2_PLACEMENT_3D('',#1648,#1348,#1349);
#1113=AXIS2_PLACEMENT_3D('',#1650,#1351,#1352);
#1114=AXIS2_PLACEMENT_3D('',#1652,#1354,#1355);
#1115=AXIS2_PLACEMENT_3D('',#1653,#1356,#1357);
#1116=AXIS2_PLACEMENT_3D('',#1656,#1360,#1361);
#1117=AXIS2_PLACEMENT_3D('',#1658,#1363,#1364);
#1118=AXIS2_PLACEMENT_3D('',#1660,#1366,#1367);
#1119=AXIS2_PLACEMENT_3D('',#1661,#1368,#1369);
#1120=AXIS2_PLACEMENT_3D('',#1662,#1370,#1371);
#1121=AXIS2_PLACEMENT_3D('',#1663,#1372,#1373);
#1122=AXIS2_PLACEMENT_3D('',#1664,#1374,#1375);
#1123=AXIS2_PLACEMENT_3D('',#1665,#1376,#1377);
#1124=AXIS2_PLACEMENT_3D('',#1669,#1380,#1381);
#1125=AXIS2_PLACEMENT_3D('',#1673,#1384,#1385);
#1126=AXIS2_PLACEMENT_3D('',#1675,#1387,#1388);
#1127=DIRECTION('',(0.,0.,1.));
#1128=DIRECTION('',(1.,0.,0.));
#1129=DIRECTION('',(-1.,0.,0.));
#1130=DIRECTION('',(0.,0.,1.));
#1131=DIRECTION('',(0.,-1.,0.));
#1132=DIRECTION('',(0.,0.,1.));
#1133=DIRECTION('',(0.,-1.,0.));
#1134=DIRECTION('',(0.,0.,1.));
#1135=DIRECTION('',(0.,-1.,0.));
#1136=DIRECTION('',(0.,0.,-1.));
#1137=DIRECTION('',(1.,0.,0.));
#1138=DIRECTION('',(1.,0.,0.));
#1139=DIRECTION('',(0.,0.,1.));
#1140=DIRECTION('',(-1.,0.,0.));
#1141=DIRECTION('',(0.,0.,1.));
#1142=DIRECTION('',(0.,-1.,0.));
#1143=DIRECTION('',(0.,-1.,0.));
#1144=DIRECTION('',(0.,0.,1.));
#1145=DIRECTION('',(-1.,0.,0.));
#1146=DIRECTION('',(0.,0.,1.));
#1147=DIRECTION('',(0.,-1.,0.));
#1148=DIRECTION('',(0.,0.,1.));
#1149=DIRECTION('',(0.,-1.,0.));
#1150=DIRECTION('',(0.,0.,1.));
#1151=DIRECTION('',(0.,-1.,0.));
#1152=DIRECTION('',(0.,0.,-1.));
#1153=DIRECTION('',(1.,0.,0.));
#1154=DIRECTION('',(1.,0.,0.));
#1155=DIRECTION('',(0.,0.,1.));
#1156=DIRECTION('',(-1.,0.,0.));
#1157=DIRECTION('',(0.,0.,1.));
#1158=DIRECTION('',(0.,-1.,0.));
#1159=DIRECTION('',(0.,-1.,0.));
#1160=DIRECTION('',(0.,0.,1.));
#1161=DIRECTION('',(-1.,0.,0.));
#1162=DIRECTION('',(0.,0.,1.));
#1163=DIRECTION('',(0.,-1.,0.));
#1164=DIRECTION('',(0.,0.,1.));
#1165=DIRECTION('',(0.,-1.,0.));
#1166=DIRECTION('',(0.,0.,1.));
#1167=DIRECTION('',(0.,-1.,0.));
#1168=DIRECTION('',(0.,0.,-1.));
#1169=DIRECTION('',(1.,0.,0.));
#1170=DIRECTION('',(1.,0.,0.));
#1171=DIRECTION('',(0.,0.,1.));
#1172=DIRECTION('',(-1.,0.,0.));
#1173=DIRECTION('',(0.,0.,1.));
#1174=DIRECTION('',(0.,-1.,0.));
#1175=DIRECTION('',(0.,-1.,0.));
#1176=DIRECTION('',(0.,0.,1.));
#1177=DIRECTION('',(-1.,0.,0.));
#1178=DIRECTION('',(0.,0.,1.));
#1179=DIRECTION('',(0.,-1.,0.));
#1180=DIRECTION('',(0.,0.,1.));
#1181=DIRECTION('',(0.,-1.,0.));
#1182=DIRECTION('',(0.,0.,1.));
#1183=DIRECTION('',(0.,-1.,0.));
#1184=DIRECTION('',(0.,0.,-1.));
#1185=DIRECTION('',(1.,0.,0.));
#1186=DIRECTION('',(1.,0.,0.));
#1187=DIRECTION('',(0.,0.,1.));
#1188=DIRECTION('',(-1.,0.,0.));
#1189=DIRECTION('',(0.,0.,1.));
#1190=DIRECTION('',(0.,-1.,0.));
#1191=DIRECTION('',(0.,-1.,0.));
#1192=DIRECTION('',(0.,0.,1.));
#1193=DIRECTION('',(-1.,0.,0.));
#1194=DIRECTION('',(0.,0.,1.));
#1195=DIRECTION('',(0.,-1.,0.));
#1196=DIRECTION('',(0.,0.,1.));
#1197=DIRECTION('',(0.,-1.,0.));
#1198=DIRECTION('',(0.,0.,1.));
#1199=DIRECTION('',(0.,-1.,0.));
#1200=DIRECTION('',(0.,0.,-1.));
#1201=DIRECTION('',(1.,0.,0.));
#1202=DIRECTION('',(1.,0.,0.));
#1203=DIRECTION('',(0.,0.,1.));
#1204=DIRECTION('',(-1.,0.,0.));
#1205=DIRECTION('',(0.,0.,1.));
#1206=DIRECTION('',(0.,-1.,0.));
#1207=DIRECTION('',(0.,-1.,0.));
#1208=DIRECTION('',(0.,0.,1.));
#1209=DIRECTION('',(-1.,0.,0.));
#1210=DIRECTION('',(0.,0.,1.));
#1211=DIRECTION('',(0.,-1.,0.));
#1212=DIRECTION('',(0.,0.,1.));
#1213=DIRECTION('',(0.,-1.,0.));
#1214=DIRECTION('',(0.,0.,1.));
#1215=DIRECTION('',(0.,-1.,0.));
#1216=DIRECTION('',(0.,0.,-1.));
#1217=DIRECTION('',(1.,0.,0.));
#1218=DIRECTION('',(1.,0.,0.));
#1219=DIRECTION('',(0.,0.,1.));
#1220=DIRECTION('',(-1.,0.,0.));
#1221=DIRECTION('',(0.,0.,1.));
#1222=DIRECTION('',(0.,-1.,0.));
#1223=DIRECTION('',(0.,-1.,0.));
#1224=DIRECTION('',(0.,0.,1.));
#1225=DIRECTION('',(0.,-1.,0.));
#1226=DIRECTION('',(0.,0.,-1.));
#1227=DIRECTION('',(1.,0.,0.));
#1228=DIRECTION('',(1.,0.,0.));
#1229=DIRECTION('',(0.,-1.,0.));
#1230=DIRECTION('',(0.,0.,-1.));
#1231=DIRECTION('',(1.,0.,0.));
#1232=DIRECTION('',(1.,0.,0.));
#1233=DIRECTION('',(0.,-1.,0.));
#1234=DIRECTION('',(0.,0.,-1.));
#1235=DIRECTION('',(1.,0.,0.));
#1236=DIRECTION('',(1.,0.,0.));
#1237=DIRECTION('',(0.,-1.,0.));
#1238=DIRECTION('',(0.,0.,-1.));
#1239=DIRECTION('',(1.,0.,0.));
#1240=DIRECTION('',(1.,0.,0.));
#1241=DIRECTION('',(0.,-1.,0.));
#1242=DIRECTION('',(0.,0.,-1.));
#1243=DIRECTION('',(1.,0.,0.));
#1244=DIRECTION('',(1.,0.,0.));
#1245=DIRECTION('',(0.,-1.,0.));
#1246=DIRECTION('',(0.,0.,-1.));
#1247=DIRECTION('',(1.,0.,0.));
#1248=DIRECTION('',(1.,0.,0.));
#1249=DIRECTION('',(0.,0.,1.));
#1250=DIRECTION('',(1.,0.,0.));
#1251=DIRECTION('',(1.,0.,0.));
#1252=DIRECTION('',(0.,-1.,0.));
#1253=DIRECTION('',(1.,0.,0.));
#1254=DIRECTION('',(0.,0.,1.));
#1255=DIRECTION('',(1.,0.,0.));
#1256=DIRECTION('',(0.,-1.,0.));
#1257=DIRECTION('',(0.,0.,1.));
#1258=DIRECTION('',(1.,0.,0.));
#1259=DIRECTION('',(1.,0.,0.));
#1260=DIRECTION('',(0.,0.,1.));
#1261=DIRECTION('',(1.,0.,0.));
#1262=DIRECTION('',(0.,-1.,0.));
#1263=DIRECTION('',(0.,0.,1.));
#1264=DIRECTION('',(1.,0.,0.));
#1265=DIRECTION('',(1.,0.,0.));
#1266=DIRECTION('',(0.,-1.,0.));
#1267=DIRECTION('',(0.,-1.,0.));
#1268=DIRECTION('',(0.,0.,-1.));
#1269=DIRECTION('',(1.,0.,0.));
#1270=DIRECTION('',(0.,-1.,0.));
#1271=DIRECTION('',(0.,0.,-1.));
#1272=DIRECTION('',(1.,0.,0.));
#1273=DIRECTION('',(1.,3.65350662463398E-16,0.));
#1274=DIRECTION('',(0.,-1.,0.));
#1275=DIRECTION('',(1.,2.28344164039623E-16,0.));
#1276=DIRECTION('',(0.,-1.,0.));
#1277=DIRECTION('',(0.,0.,1.));
#1278=DIRECTION('',(1.,0.,0.));
#1279=DIRECTION('',(0.,0.,1.));
#1280=DIRECTION('',(1.,0.,0.));
#1281=DIRECTION('',(0.,0.,1.));
#1282=DIRECTION('',(1.,0.,0.));
#1283=DIRECTION('',(0.,0.,1.));
#1284=DIRECTION('',(1.,0.,0.));
#1285=DIRECTION('',(0.,0.,1.));
#1286=DIRECTION('',(1.,0.,0.));
#1287=DIRECTION('',(0.,-1.,0.));
#1288=DIRECTION('',(0.,0.,1.));
#1289=DIRECTION('',(1.,0.,0.));
#1290=DIRECTION('',(1.,0.,0.));
#1291=DIRECTION('',(0.,0.,1.));
#1292=DIRECTION('',(1.,0.,0.));
#1293=DIRECTION('',(0.,-1.,0.));
#1294=DIRECTION('',(0.,0.,1.));
#1295=DIRECTION('',(1.,0.,0.));
#1296=DIRECTION('',(1.,0.,0.));
#1297=DIRECTION('',(0.,0.,1.));
#1298=DIRECTION('',(1.,0.,0.));
#1299=DIRECTION('',(0.,0.,-1.));
#1300=DIRECTION('',(1.,0.,0.));
#1301=DIRECTION('',(0.,-1.,0.));
#1302=DIRECTION('',(0.,0.,-1.));
#1303=DIRECTION('',(1.,0.,0.));
#1304=DIRECTION('',(0.,-1.,0.));
#1305=DIRECTION('',(0.,-1.,0.));
#1306=DIRECTION('',(1.,3.65350662463398E-16,0.));
#1307=DIRECTION('',(0.,-1.,0.));
#1308=DIRECTION('',(1.,2.28344164039623E-16,0.));
#1309=DIRECTION('',(0.,0.,1.));
#1310=DIRECTION('',(1.,0.,0.));
#1311=DIRECTION('',(0.,0.,1.));
#1312=DIRECTION('',(1.,0.,0.));
#1313=DIRECTION('',(0.,0.,1.));
#1314=DIRECTION('',(1.,0.,0.));
#1315=DIRECTION('',(0.,0.,1.));
#1316=DIRECTION('',(1.,0.,0.));
#1317=DIRECTION('',(-1.,0.,0.));
#1318=DIRECTION('',(0.,0.,1.));
#1319=DIRECTION('',(0.,0.,1.));
#1320=DIRECTION('',(0.,0.,1.));
#1321=DIRECTION('',(0.,0.,1.));
#1322=DIRECTION('',(1.,0.,0.));
#1323=DIRECTION('',(0.,0.,1.));
#1324=DIRECTION('',(0.,-1.,0.));
#1325=DIRECTION('',(0.,0.,-1.));
#1326=DIRECTION('',(0.,0.,-1.));
#1327=DIRECTION('',(1.,0.,0.));
#1328=DIRECTION('',(0.,0.,-1.));
#1329=DIRECTION('',(0.,0.,1.));
#1330=DIRECTION('',(0.,0.,1.));
#1331=DIRECTION('',(1.,0.,0.));
#1332=DIRECTION('',(0.,0.,1.));
#1333=DIRECTION('',(-1.,0.,0.));
#1334=DIRECTION('',(0.,0.,1.));
#1335=DIRECTION('',(0.,0.,1.));
#1336=DIRECTION('',(0.,0.,1.));
#1337=DIRECTION('',(1.,0.,0.));
#1338=DIRECTION('',(0.,0.,1.));
#1339=DIRECTION('',(0.,-1.,0.));
#1340=DIRECTION('',(0.,0.,-1.));
#1341=DIRECTION('',(0.,0.,1.));
#1342=DIRECTION('',(0.,0.,1.));
#1343=DIRECTION('',(1.,0.,0.));
#1344=DIRECTION('',(-1.,0.,0.));
#1345=DIRECTION('',(0.,0.,1.));
#1346=DIRECTION('',(0.,0.,1.));
#1347=DIRECTION('',(0.,0.,1.));
#1348=DIRECTION('',(0.,0.,1.));
#1349=DIRECTION('',(1.,0.,0.));
#1350=DIRECTION('',(0.,0.,1.));
#1351=DIRECTION('',(-1.,0.,0.));
#1352=DIRECTION('',(0.,0.,1.));
#1353=DIRECTION('',(0.,0.,1.));
#1354=DIRECTION('',(0.,0.,1.));
#1355=DIRECTION('',(1.,0.,0.));
#1356=DIRECTION('',(3.65350662463398E-16,-1.,0.));
#1357=DIRECTION('',(1.,3.65350662463398E-16,0.));
#1358=DIRECTION('',(0.,0.,1.));
#1359=DIRECTION('',(0.,0.,1.));
#1360=DIRECTION('',(-1.,0.,0.));
#1361=DIRECTION('',(0.,0.,1.));
#1362=DIRECTION('',(0.,0.,1.));
#1363=DIRECTION('',(2.28344164039623E-16,-1.,0.));
#1364=DIRECTION('',(1.,2.28344164039623E-16,0.));
#1365=DIRECTION('',(0.,0.,1.));
#1366=DIRECTION('',(-1.,0.,0.));
#1367=DIRECTION('',(0.,0.,1.));
#1368=DIRECTION('',(0.,0.,1.));
#1369=DIRECTION('',(1.,0.,0.));
#1370=DIRECTION('',(0.,0.,1.));
#1371=DIRECTION('',(1.,0.,0.));
#1372=DIRECTION('',(0.,0.,1.));
#1373=DIRECTION('',(1.,0.,0.));
#1374=DIRECTION('',(0.,0.,1.));
#1375=DIRECTION('',(1.,0.,0.));
#1376=DIRECTION('',(-1.,0.,0.));
#1377=DIRECTION('',(0.,0.,1.));
#1378=DIRECTION('',(0.,0.,-1.));
#1379=DIRECTION('',(0.,-1.,0.));
#1380=DIRECTION('',(-1.,0.,0.));
#1381=DIRECTION('',(0.,0.,1.));
#1382=DIRECTION('',(0.,-1.,0.));
#1383=DIRECTION('',(0.,0.,-1.));
#1384=DIRECTION('',(0.,-1.,0.));
#1385=DIRECTION('',(1.,0.,0.));
#1386=DIRECTION('',(1.,0.,0.));
#1387=DIRECTION('',(0.,0.,-1.));
#1388=DIRECTION('',(-1.,0.,0.));
#1389=CARTESIAN_POINT('',(0.,0.,0.));
#1390=CARTESIAN_POINT('',(0.0224197185980529,-0.0362948107421398,0.012));
#1391=CARTESIAN_POINT('',(0.0224197185980529,-0.0362948107421398,0.015));
#1392=CARTESIAN_POINT('',(0.0224197185980529,-0.0327948107421398,0.015));
#1393=CARTESIAN_POINT('',(0.0224197185980529,-0.0397948107421398,0.015));
#1394=CARTESIAN_POINT('',(0.0224197185980529,-0.0397948107421398,0.012));
#1395=CARTESIAN_POINT('',(0.0224197185980529,-0.0397948107421398,0.012));
#1396=CARTESIAN_POINT('',(0.0224197185980529,-0.0362948107421398,0.012));
#1397=CARTESIAN_POINT('',(0.0224197185980529,-0.0327948107421398,0.012));
#1398=CARTESIAN_POINT('',(0.0224197185980529,-0.0327948107421398,0.012));
#1399=CARTESIAN_POINT('',(0.0259197185980529,-0.0327948107421398,0.012));
#1400=CARTESIAN_POINT('',(0.0259197185980529,-0.0327948107421398,0.015));
#1401=CARTESIAN_POINT('',(0.0294197185980529,-0.0327948107421398,0.015));
#1402=CARTESIAN_POINT('',(0.0259197185980529,-0.0327948107421398,0.012));
#1403=CARTESIAN_POINT('',(0.0294197185980529,-0.0327948107421398,0.012));
#1404=CARTESIAN_POINT('',(0.0294197185980529,-0.0327948107421398,0.012));
#1405=CARTESIAN_POINT('',(0.0294197185980529,-0.0362948107421398,0.012));
#1406=CARTESIAN_POINT('',(0.0294197185980529,-0.0362948107421398,0.015));
#1407=CARTESIAN_POINT('',(0.0294197185980529,-0.0397948107421398,0.015));
#1408=CARTESIAN_POINT('',(0.0294197185980529,-0.0362948107421398,0.012));
#1409=CARTESIAN_POINT('',(0.0294197185980529,-0.0397948107421398,0.012));
#1410=CARTESIAN_POINT('',(0.0294197185980529,-0.0397948107421398,0.012));
#1411=CARTESIAN_POINT('',(0.0126597185980529,-0.0288593690335751,0.012));
#1412=CARTESIAN_POINT('',(0.0126597185980529,-0.0288593690335751,0.015));
#1413=CARTESIAN_POINT('',(0.0126597185980528,-0.0253593690335751,0.015));
#1414=CARTESIAN_POINT('',(0.0126597185980529,-0.0323593690335751,0.015));
#1415=CARTESIAN_POINT('',(0.0126597185980529,-0.0323593690335751,0.012));
#1416=CARTESIAN_POINT('',(0.0126597185980529,-0.0323593690335751,0.012));
#1417=CARTESIAN_POINT('',(0.0126597185980529,-0.0288593690335751,0.012));
#1418=CARTESIAN_POINT('',(0.0126597185980528,-0.0253593690335751,0.012));
#1419=CARTESIAN_POINT('',(0.0126597185980528,-0.0253593690335751,0.012));
#1420=CARTESIAN_POINT('',(0.0161597185980529,-0.0253593690335751,0.012));
#1421=CARTESIAN_POINT('',(0.0161597185980529,-0.0253593690335751,0.015));
#1422=CARTESIAN_POINT('',(0.0196597185980528,-0.0253593690335751,0.015));
#1423=CARTESIAN_POINT('',(0.0161597185980529,-0.0253593690335751,0.012));
#1424=CARTESIAN_POINT('',(0.0196597185980528,-0.0253593690335751,0.012));
#1425=CARTESIAN_POINT('',(0.0196597185980528,-0.0253593690335751,0.012));
#1426=CARTESIAN_POINT('',(0.0196597185980528,-0.0288593690335751,0.012));
#1427=CARTESIAN_POINT('',(0.0196597185980528,-0.0288593690335751,0.015));
#1428=CARTESIAN_POINT('',(0.0196597185980528,-0.0323593690335751,0.015));
#1429=CARTESIAN_POINT('',(0.0196597185980528,-0.0288593690335751,0.012));
#1430=CARTESIAN_POINT('',(0.0196597185980528,-0.0323593690335751,0.012));
#1431=CARTESIAN_POINT('',(0.0196597185980528,-0.0323593690335751,0.012));
#1432=CARTESIAN_POINT('',(-0.0301517270356416,-0.0332137742698193,0.012));
#1433=CARTESIAN_POINT('',(-0.0301517270356416,-0.0332137742698193,0.015));
#1434=CARTESIAN_POINT('',(-0.0301517270356416,-0.0297137742698193,0.015));
#1435=CARTESIAN_POINT('',(-0.0301517270356416,-0.0367137742698193,0.015));
#1436=CARTESIAN_POINT('',(-0.0301517270356416,-0.0367137742698193,0.012));
#1437=CARTESIAN_POINT('',(-0.0301517270356416,-0.0367137742698193,0.012));
#1438=CARTESIAN_POINT('',(-0.0301517270356416,-0.0332137742698193,0.012));
#1439=CARTESIAN_POINT('',(-0.0301517270356416,-0.0297137742698193,0.012));
#1440=CARTESIAN_POINT('',(-0.0301517270356416,-0.0297137742698193,0.012));
#1441=CARTESIAN_POINT('',(-0.0266517270356416,-0.0297137742698193,0.012));
#1442=CARTESIAN_POINT('',(-0.0266517270356416,-0.0297137742698193,0.015));
#1443=CARTESIAN_POINT('',(-0.0231517270356416,-0.0297137742698193,0.015));
#1444=CARTESIAN_POINT('',(-0.0266517270356416,-0.0297137742698193,0.012));
#1445=CARTESIAN_POINT('',(-0.0231517270356416,-0.0297137742698193,0.012));
#1446=CARTESIAN_POINT('',(-0.0231517270356416,-0.0297137742698193,0.012));
#1447=CARTESIAN_POINT('',(-0.0231517270356416,-0.0332137742698193,0.012));
#1448=CARTESIAN_POINT('',(-0.0231517270356416,-0.0332137742698193,0.015));
#1449=CARTESIAN_POINT('',(-0.0231517270356416,-0.0367137742698193,0.015));
#1450=CARTESIAN_POINT('',(-0.0231517270356416,-0.0332137742698193,0.012));
#1451=CARTESIAN_POINT('',(-0.0231517270356416,-0.0367137742698193,0.012));
#1452=CARTESIAN_POINT('',(-0.0231517270356416,-0.0367137742698193,0.012));
#1453=CARTESIAN_POINT('',(-0.0205634174719453,-0.0408265655338765,0.012));
#1454=CARTESIAN_POINT('',(-0.0205634174719453,-0.0408265655338765,0.015));
#1455=CARTESIAN_POINT('',(-0.0205634174719453,-0.0373265655338764,0.015));
#1456=CARTESIAN_POINT('',(-0.0205634174719453,-0.0443265655338764,0.015));
#1457=CARTESIAN_POINT('',(-0.0205634174719453,-0.0443265655338764,0.012));
#1458=CARTESIAN_POINT('',(-0.0205634174719453,-0.0443265655338764,0.012));
#1459=CARTESIAN_POINT('',(-0.0205634174719453,-0.0408265655338765,0.012));
#1460=CARTESIAN_POINT('',(-0.0205634174719453,-0.0373265655338764,0.012));
#1461=CARTESIAN_POINT('',(-0.0205634174719453,-0.0373265655338764,0.012));
#1462=CARTESIAN_POINT('',(-0.0170634174719453,-0.0373265655338764,0.012));
#1463=CARTESIAN_POINT('',(-0.0170634174719453,-0.0373265655338764,0.015));
#1464=CARTESIAN_POINT('',(-0.0135634174719453,-0.0373265655338764,0.015));
#1465=CARTESIAN_POINT('',(-0.0170634174719453,-0.0373265655338764,0.012));
#1466=CARTESIAN_POINT('',(-0.0135634174719453,-0.0373265655338764,0.012));
#1467=CARTESIAN_POINT('',(-0.0135634174719453,-0.0373265655338764,0.012));
#1468=CARTESIAN_POINT('',(-0.0135634174719453,-0.0408265655338765,0.012));
#1469=CARTESIAN_POINT('',(-0.0135634174719453,-0.0408265655338765,0.015));
#1470=CARTESIAN_POINT('',(-0.0135634174719453,-0.0443265655338764,0.015));
#1471=CARTESIAN_POINT('',(-0.0135634174719453,-0.0408265655338765,0.012));
#1472=CARTESIAN_POINT('',(-0.0135634174719453,-0.0443265655338764,0.012));
#1473=CARTESIAN_POINT('',(-0.0135634174719453,-0.0443265655338764,0.012));
#1474=CARTESIAN_POINT('',(-0.0109765770196915,-0.0332137742698193,0.012));
#1475=CARTESIAN_POINT('',(-0.0109765770196915,-0.0332137742698193,0.015));
#1476=CARTESIAN_POINT('',(-0.0109765770196915,-0.0297137742698193,0.015));
#1477=CARTESIAN_POINT('',(-0.0109765770196915,-0.0367137742698193,0.015));
#1478=CARTESIAN_POINT('',(-0.0109765770196915,-0.0367137742698193,0.012));
#1479=CARTESIAN_POINT('',(-0.0109765770196915,-0.0367137742698193,0.012));
#1480=CARTESIAN_POINT('',(-0.0109765770196915,-0.0332137742698193,0.012));
#1481=CARTESIAN_POINT('',(-0.0109765770196915,-0.0297137742698193,0.012));
#1482=CARTESIAN_POINT('',(-0.0109765770196915,-0.0297137742698193,0.012));
#1483=CARTESIAN_POINT('',(-0.00747657701969147,-0.0297137742698193,0.012));
#1484=CARTESIAN_POINT('',(-0.00747657701969147,-0.0297137742698193,0.015));
#1485=CARTESIAN_POINT('',(-0.00397657701969147,-0.0297137742698193,0.015));
#1486=CARTESIAN_POINT('',(-0.00747657701969147,-0.0297137742698193,0.012));
#1487=CARTESIAN_POINT('',(-0.00397657701969147,-0.0297137742698193,0.012));
#1488=CARTESIAN_POINT('',(-0.00397657701969147,-0.0297137742698193,0.012));
#1489=CARTESIAN_POINT('',(-0.00397657701969147,-0.0332137742698193,0.012));
#1490=CARTESIAN_POINT('',(-0.00397657701969147,-0.0332137742698193,0.015));
#1491=CARTESIAN_POINT('',(-0.00397657701969147,-0.0367137742698193,0.015));
#1492=CARTESIAN_POINT('',(-0.00397657701969147,-0.0332137742698193,0.012));
#1493=CARTESIAN_POINT('',(-0.00397657701969147,-0.0367137742698193,0.012));
#1494=CARTESIAN_POINT('',(-0.00397657701969147,-0.0367137742698193,0.012));
#1495=CARTESIAN_POINT('',(-0.0205634174719453,-0.0258221131607156,0.012));
#1496=CARTESIAN_POINT('',(-0.0205634174719453,-0.0258221131607156,0.015));
#1497=CARTESIAN_POINT('',(-0.0205634174719453,-0.0223221131607157,0.015));
#1498=CARTESIAN_POINT('',(-0.0205634174719453,-0.0293221131607157,0.015));
#1499=CARTESIAN_POINT('',(-0.0205634174719453,-0.0293221131607157,0.012));
#1500=CARTESIAN_POINT('',(-0.0205634174719453,-0.0293221131607157,0.012));
#1501=CARTESIAN_POINT('',(-0.0205634174719453,-0.0258221131607156,0.012));
#1502=CARTESIAN_POINT('',(-0.0205634174719453,-0.0223221131607157,0.012));
#1503=CARTESIAN_POINT('',(-0.0205634174719453,-0.0223221131607157,0.012));
#1504=CARTESIAN_POINT('',(-0.0170634174719453,-0.0223221131607157,0.012));
#1505=CARTESIAN_POINT('',(-0.0170634174719453,-0.0223221131607157,0.015));
#1506=CARTESIAN_POINT('',(-0.0135634174719453,-0.0223221131607157,0.015));
#1507=CARTESIAN_POINT('',(-0.0170634174719453,-0.0223221131607157,0.012));
#1508=CARTESIAN_POINT('',(-0.0135634174719453,-0.0223221131607157,0.012));
#1509=CARTESIAN_POINT('',(-0.0135634174719453,-0.0223221131607157,0.012));
#1510=CARTESIAN_POINT('',(-0.0135634174719453,-0.0258221131607156,0.012));
#1511=CARTESIAN_POINT('',(-0.0135634174719453,-0.0258221131607156,0.015));
#1512=CARTESIAN_POINT('',(-0.0135634174719453,-0.0293221131607157,0.015));
#1513=CARTESIAN_POINT('',(-0.0135634174719453,-0.0258221131607156,0.012));
#1514=CARTESIAN_POINT('',(-0.0135634174719453,-0.0293221131607157,0.012));
#1515=CARTESIAN_POINT('',(-0.0135634174719453,-0.0293221131607157,0.012));
#1516=CARTESIAN_POINT('',(0.0259197185980529,-0.0397948107421398,0.012));
#1517=CARTESIAN_POINT('',(0.0259197185980529,-0.0397948107421398,0.015));
#1518=CARTESIAN_POINT('',(0.0259197185980529,-0.0397948107421398,0.012));
#1519=CARTESIAN_POINT('',(0.0161597185980529,-0.0323593690335751,0.012));
#1520=CARTESIAN_POINT('',(0.0161597185980529,-0.0323593690335751,0.015));
#1521=CARTESIAN_POINT('',(0.0161597185980529,-0.0323593690335751,0.012));
#1522=CARTESIAN_POINT('',(-0.0266517270356416,-0.0367137742698193,0.012));
#1523=CARTESIAN_POINT('',(-0.0266517270356416,-0.0367137742698193,0.015));
#1524=CARTESIAN_POINT('',(-0.0266517270356416,-0.0367137742698193,0.012));
#1525=CARTESIAN_POINT('',(-0.0170634174719453,-0.0443265655338764,0.012));
#1526=CARTESIAN_POINT('',(-0.0170634174719453,-0.0443265655338764,0.015));
#1527=CARTESIAN_POINT('',(-0.0170634174719453,-0.0443265655338764,0.012));
#1528=CARTESIAN_POINT('',(-0.00747657701969147,-0.0367137742698193,0.012));
#1529=CARTESIAN_POINT('',(-0.00747657701969147,-0.0367137742698193,0.015));
#1530=CARTESIAN_POINT('',(-0.00747657701969147,-0.0367137742698193,0.012));
#1531=CARTESIAN_POINT('',(-0.0170634174719453,-0.0293221131607157,0.012));
#1532=CARTESIAN_POINT('',(-0.0170634174719453,-0.0293221131607157,0.015));
#1533=CARTESIAN_POINT('',(-0.0170634174719453,-0.0293221131607157,0.012));
#1534=CARTESIAN_POINT('',(0.00021498727202416,-0.00963000208139419,0.012));
#1535=CARTESIAN_POINT('',(0.00021498727202416,-0.0630500018596649,0.012));
#1536=CARTESIAN_POINT('',(-0.00699063297361136,-0.0630500018596649,0.012));
#1537=CARTESIAN_POINT('',(0.00956935528665781,-0.0630500018596649,0.012));
#1538=CARTESIAN_POINT('',(-0.00699063297361136,-0.00963000208139419,0.012));
#1539=CARTESIAN_POINT('',(-0.00699063297361136,-0.0680500018596649,0.012));
#1540=CARTESIAN_POINT('',(0.000214987272024167,-0.0680500018596649,0.012));
#1541=CARTESIAN_POINT('',(-0.036998742890755,-0.0680500018596649,0.012));
#1542=CARTESIAN_POINT('',(-0.036998742890755,-0.0627387320224441,0.012));
#1543=CARTESIAN_POINT('',(-0.0423100127279759,-0.0627387320224441,0.012));
#1544=CARTESIAN_POINT('',(-0.0423100127279759,0.0260889281319577,0.012));
#1545=CARTESIAN_POINT('',(-0.0423100127279759,0.0434787278596557,0.012));
#1546=CARTESIAN_POINT('',(-0.036998742890755,0.0434787278596557,0.012));
#1547=CARTESIAN_POINT('',(-0.036998742890755,0.0487899976968765,0.012));
#1548=CARTESIAN_POINT('',(0.000214987272024153,0.0487899976968765,0.012));
#1549=CARTESIAN_POINT('',(0.0374287174348033,0.0487899976968765,0.012));
#1550=CARTESIAN_POINT('',(0.0374287174348033,0.0434787278596557,0.012));
#1551=CARTESIAN_POINT('',(0.0427399872720242,0.0434787278596557,0.012));
#1552=CARTESIAN_POINT('',(0.0427399872720242,0.0260889281319577,0.012));
#1553=CARTESIAN_POINT('',(0.0427399872720242,-0.0627387320224441,0.012));
#1554=CARTESIAN_POINT('',(0.0374287174348034,-0.0627387320224441,0.012));
#1555=CARTESIAN_POINT('',(0.0374287174348033,-0.0680500018596649,0.012));
#1556=CARTESIAN_POINT('',(0.000214987272024167,-0.0680500018596649,0.012));
#1557=CARTESIAN_POINT('',(0.00956935528665781,-0.0680500018596649,0.012));
#1558=CARTESIAN_POINT('',(0.00956935528665781,-0.00963000208139419,0.012));
#1559=CARTESIAN_POINT('',(0.0354436478763819,0.0246311695221631,0.012));
#1560=CARTESIAN_POINT('',(0.0354436478763819,0.0385037099755939,0.012));
#1561=CARTESIAN_POINT('',(0.0354436478763819,0.0107586290687323,0.012));
#1562=CARTESIAN_POINT('',(0.0304436478763819,0.0385037099755939,0.012));
#1563=CARTESIAN_POINT('',(0.0254436478763819,0.0385037099755939,0.012));
#1564=CARTESIAN_POINT('',(0.0254436478763819,0.0246311695221631,0.012));
#1565=CARTESIAN_POINT('',(0.0254436478763819,0.0107586290687323,0.012));
#1566=CARTESIAN_POINT('',(0.0304436478763819,0.0107586290687323,0.012));
#1567=CARTESIAN_POINT('',(-0.000515849622670189,0.0421101943454149,0.012));
#1568=CARTESIAN_POINT('',(-0.0195082714705501,0.0421101943454149,0.012));
#1569=CARTESIAN_POINT('',(0.0184765722252097,0.0421101943454149,0.012));
#1570=CARTESIAN_POINT('',(-0.0195082714705501,0.0243601943454148,0.012));
#1571=CARTESIAN_POINT('',(-0.0195082714705501,0.00661019434541484,0.012));
#1572=CARTESIAN_POINT('',(-0.000515849622670189,0.00661019434541485,0.012));
#1573=CARTESIAN_POINT('',(0.0184765722252097,0.00661019434541484,0.012));
#1574=CARTESIAN_POINT('',(0.0184765722252097,0.0243601943454148,0.012));
#1575=CARTESIAN_POINT('',(0.0383007452616628,0.0456191800851514,0.012));
#1576=CARTESIAN_POINT('',(0.0393007452616628,0.0456191800851514,0.012));
#1577=CARTESIAN_POINT('',(0.0395691696602991,-0.0636107598493036,0.012));
#1578=CARTESIAN_POINT('',(0.0405691696602991,-0.0636107598493036,0.012));
#1579=CARTESIAN_POINT('',(-0.0395691696602991,-0.0636107598493036,0.012));
#1580=CARTESIAN_POINT('',(-0.0385691696602991,-0.0636107598493036,0.012));
#1581=CARTESIAN_POINT('',(-0.0383007452616628,0.0456191800851514,0.012));
#1582=CARTESIAN_POINT('',(-0.0373007452616628,0.0456191800851514,0.012));
#1583=CARTESIAN_POINT('',(0.00021498727202416,-0.00963000208139419,0.015));
#1584=CARTESIAN_POINT('',(-0.0423100127279759,0.0260889281319577,0.015));
#1585=CARTESIAN_POINT('',(-0.0423100127279759,0.0434787278596557,0.015));
#1586=CARTESIAN_POINT('',(-0.0423100127279759,-0.0627387320224441,0.015));
#1587=CARTESIAN_POINT('',(-0.036998742890755,-0.0627387320224441,0.015));
#1588=CARTESIAN_POINT('',(-0.036998742890755,-0.0680500018596649,0.015));
#1589=CARTESIAN_POINT('',(0.000214987272024167,-0.0680500018596649,0.015));
#1590=CARTESIAN_POINT('',(0.0374287174348033,-0.0680500018596649,0.015));
#1591=CARTESIAN_POINT('',(0.0374287174348034,-0.0627387320224441,0.015));
#1592=CARTESIAN_POINT('',(0.0427399872720242,-0.0627387320224441,0.015));
#1593=CARTESIAN_POINT('',(0.0427399872720242,0.0260889281319577,0.015));
#1594=CARTESIAN_POINT('',(0.0427399872720242,0.0434787278596557,0.015));
#1595=CARTESIAN_POINT('',(0.0374287174348033,0.0434787278596557,0.015));
#1596=CARTESIAN_POINT('',(0.0374287174348033,0.0487899976968765,0.015));
#1597=CARTESIAN_POINT('',(0.000214987272024153,0.0487899976968765,0.015));
#1598=CARTESIAN_POINT('',(-0.036998742890755,0.0487899976968765,0.015));
#1599=CARTESIAN_POINT('',(-0.036998742890755,0.0434787278596557,0.015));
#1600=CARTESIAN_POINT('',(0.0304436478763819,0.0385037099755939,0.015));
#1601=CARTESIAN_POINT('',(0.0254436478763819,0.0385037099755939,0.015));
#1602=CARTESIAN_POINT('',(0.0354436478763819,0.0385037099755939,0.015));
#1603=CARTESIAN_POINT('',(0.0354436478763819,0.0246311695221631,0.015));
#1604=CARTESIAN_POINT('',(0.0354436478763819,0.0107586290687323,0.015));
#1605=CARTESIAN_POINT('',(0.0304436478763819,0.0107586290687323,0.015));
#1606=CARTESIAN_POINT('',(0.0254436478763819,0.0107586290687323,0.015));
#1607=CARTESIAN_POINT('',(0.0254436478763819,0.0246311695221631,0.015));
#1608=CARTESIAN_POINT('',(-0.0195082714705501,0.0243601943454148,0.015));
#1609=CARTESIAN_POINT('',(-0.0195082714705501,0.0421101943454149,0.015));
#1610=CARTESIAN_POINT('',(-0.0195082714705501,0.00661019434541484,0.015));
#1611=CARTESIAN_POINT('',(-0.000515849622670189,0.0421101943454149,0.015));
#1612=CARTESIAN_POINT('',(0.0184765722252097,0.0421101943454149,0.015));
#1613=CARTESIAN_POINT('',(0.0184765722252097,0.0243601943454148,0.015));
#1614=CARTESIAN_POINT('',(0.0184765722252097,0.00661019434541485,0.015));
#1615=CARTESIAN_POINT('',(-0.000515849622670189,0.00661019434541485,0.015));
#1616=CARTESIAN_POINT('',(0.0383007452616628,0.0456191800851514,0.015));
#1617=CARTESIAN_POINT('',(0.0393007452616628,0.0456191800851514,0.015));
#1618=CARTESIAN_POINT('',(0.0395691696602991,-0.0636107598493036,0.015));
#1619=CARTESIAN_POINT('',(0.0405691696602991,-0.0636107598493036,0.015));
#1620=CARTESIAN_POINT('',(-0.0395691696602991,-0.0636107598493036,0.015));
#1621=CARTESIAN_POINT('',(-0.0385691696602991,-0.0636107598493036,0.015));
#1622=CARTESIAN_POINT('',(-0.0383007452616628,0.0456191800851514,0.015));
#1623=CARTESIAN_POINT('',(-0.0373007452616628,0.0456191800851514,0.015));
#1624=CARTESIAN_POINT('',(-0.0423100127279759,0.0260889281319577,0.012));
#1625=CARTESIAN_POINT('',(-0.0423100127279759,0.0434787278596557,0.012));
#1626=CARTESIAN_POINT('',(-0.0423100127279759,-0.0627387320224441,0.012));
#1627=CARTESIAN_POINT('',(-0.036998742890755,-0.0627387320224441,0.012));
#1628=CARTESIAN_POINT('',(-0.036998742890755,-0.0680500018596649,0.012));
#1629=CARTESIAN_POINT('',(0.000214987272024167,-0.0680500018596649,0.012));
#1630=CARTESIAN_POINT('',(-0.00699063297361136,-0.0680500018596649,0.0098801362067461));
#1631=CARTESIAN_POINT('',(-0.00699063297361136,-0.0680500018596649,0.0135336913838983));
#1632=CARTESIAN_POINT('',(0.00128936115652323,-0.0680500018596649,0.0135336913838983));
#1633=CARTESIAN_POINT('',(0.00956935528665781,-0.0680500018596649,0.0135336913838983));
#1634=CARTESIAN_POINT('',(0.00956935528665781,-0.0680500018596649,0.0098801362067461));
#1635=CARTESIAN_POINT('',(0.0374287174348033,-0.0680500018596649,0.012));
#1636=CARTESIAN_POINT('',(0.0374287174348034,-0.0627387320224441,0.012));
#1637=CARTESIAN_POINT('',(0.0427399872720242,-0.0627387320224441,0.012));
#1638=CARTESIAN_POINT('',(0.0427399872720242,0.0260889281319577,0.012));
#1639=CARTESIAN_POINT('',(0.0427399872720242,0.0434787278596557,0.012));
#1640=CARTESIAN_POINT('',(0.0374287174348033,0.0434787278596557,0.012));
#1641=CARTESIAN_POINT('',(0.0374287174348033,0.0487899976968765,0.012));
#1642=CARTESIAN_POINT('',(0.000214987272024153,0.0487899976968765,0.012));
#1643=CARTESIAN_POINT('',(-0.036998742890755,0.0487899976968765,0.012));
#1644=CARTESIAN_POINT('',(-0.036998742890755,0.0434787278596557,0.012));
#1645=CARTESIAN_POINT('',(0.0354436478763819,0.0246311695221631,0.012));
#1646=CARTESIAN_POINT('',(0.0354436478763819,0.0385037099755939,0.012));
#1647=CARTESIAN_POINT('',(0.0354436478763819,0.0107586290687323,0.012));
#1648=CARTESIAN_POINT('',(0.0304436478763819,0.0385037099755939,0.012));
#1649=CARTESIAN_POINT('',(0.0254436478763819,0.0385037099755939,0.012));
#1650=CARTESIAN_POINT('',(0.0254436478763819,0.0246311695221631,0.012));
#1651=CARTESIAN_POINT('',(0.0254436478763819,0.0107586290687323,0.012));
#1652=CARTESIAN_POINT('',(0.0304436478763819,0.0107586290687323,0.012));
#1653=CARTESIAN_POINT('',(-0.000515849622670189,0.0421101943454149,0.012));
#1654=CARTESIAN_POINT('',(-0.0195082714705501,0.0421101943454149,0.012));
#1655=CARTESIAN_POINT('',(0.0184765722252097,0.0421101943454149,0.012));
#1656=CARTESIAN_POINT('',(-0.0195082714705501,0.0243601943454148,0.012));
#1657=CARTESIAN_POINT('',(-0.0195082714705501,0.00661019434541484,0.012));
#1658=CARTESIAN_POINT('',(-0.000515849622670189,0.00661019434541485,0.012));
#1659=CARTESIAN_POINT('',(0.0184765722252097,0.00661019434541484,0.012));
#1660=CARTESIAN_POINT('',(0.0184765722252097,0.0243601943454148,0.012));
#1661=CARTESIAN_POINT('',(0.0383007452616628,0.0456191800851514,0.012));
#1662=CARTESIAN_POINT('',(0.0395691696602991,-0.0636107598493036,0.012));
#1663=CARTESIAN_POINT('',(-0.0395691696602991,-0.0636107598493036,0.012));
#1664=CARTESIAN_POINT('',(-0.0383007452616628,0.0456191800851514,0.012));
#1665=CARTESIAN_POINT('',(-0.00699063297361136,-0.0630500018596649,0.0098801362067461));
#1666=CARTESIAN_POINT('',(-0.00699063297361136,-0.0630500018596649,0.0098801362067461));
#1667=CARTESIAN_POINT('',(-0.00699063297361136,-0.0630500018596649,0.0135336913838983));
#1668=CARTESIAN_POINT('',(-0.00699063297361136,-0.0630500018596649,0.0135336913838983));
#1669=CARTESIAN_POINT('',(0.00956935528665781,-0.0630500018596649,0.0098801362067461));
#1670=CARTESIAN_POINT('',(0.00956935528665781,-0.0630500018596649,0.0135336913838983));
#1671=CARTESIAN_POINT('',(0.00956935528665781,-0.0630500018596649,0.0135336913838983));
#1672=CARTESIAN_POINT('',(0.00956935528665781,-0.0630500018596649,0.0098801362067461));
#1673=CARTESIAN_POINT('',(0.000214987272024167,-0.0630500018596649,0.0095));
#1674=CARTESIAN_POINT('',(0.00128936115652323,-0.0630500018596649,0.0135336913838983));
#1675=CARTESIAN_POINT('',(0.00128936115652323,-0.0630500018596649,0.0135336913838983));
#1676=MECHANICAL_DESIGN_GEOMETRIC_PRESENTATION_REPRESENTATION('',(#1045),
#1677);
#1677=(
GEOMETRIC_REPRESENTATION_CONTEXT(3)
GLOBAL_UNCERTAINTY_ASSIGNED_CONTEXT((#1678))
GLOBAL_UNIT_ASSIGNED_CONTEXT((#1681,#1680,#1679))
REPRESENTATION_CONTEXT('Part 45','TOP_LEVEL_ASSEMBLY_PART')
);
#1678=UNCERTAINTY_MEASURE_WITH_UNIT(LENGTH_MEASURE(1.E-8),#1681,
'DISTANCE_ACCURACY_VALUE','Maximum Tolerance applied to model');
#1679=(
NAMED_UNIT(*)
SI_UNIT($,.STERADIAN.)
SOLID_ANGLE_UNIT()
);
#1680=(
NAMED_UNIT(*)
PLANE_ANGLE_UNIT()
SI_UNIT($,.RADIAN.)
);
#1681=(
LENGTH_UNIT()
NAMED_UNIT(*)
SI_UNIT($,.METRE.)
);
#1682=PRODUCT_DEFINITION_SHAPE('','',#1683);
#1683=PRODUCT_DEFINITION('','',#1685,#1684);
#1684=PRODUCT_DEFINITION_CONTEXT('',#1691,'design');
#1685=PRODUCT_DEFINITION_FORMATION_WITH_SPECIFIED_SOURCE('','',#1687,
 .NOT_KNOWN.);
#1686=PRODUCT_RELATED_PRODUCT_CATEGORY('','',(#1687));
#1687=PRODUCT('Part 45','Part 45','Part 45',(#1689));
#1688=PRODUCT_CATEGORY('','');
#1689=PRODUCT_CONTEXT('',#1691,'mechanical');
#1690=APPLICATION_PROTOCOL_DEFINITION('international standard',
'ap242_managed_model_based_3d_engineering',2020,#1691);
#1691=APPLICATION_CONTEXT('managed model based 3d engineering');
ENDSEC;
END-ISO-10303-21;
